<?xml version="1.0" encoding="utf-8"?>
<!-- Generator: Adobe Illustrator 24.2.1, SVG Export Plug-In . SVG Version: 6.00 Build 0)  -->
<svg version="1.1" id="Capa_1" xmlns="http://www.w3.org/2000/svg" xmlns:xlink="http://www.w3.org/1999/xlink" x="0px" y="0px"
	 viewBox="0 0 64 64" style="enable-background:new 0 0 64 64;" xml:space="preserve">
<style type="text/css">
	.st0{fill:#FFFFFF;}
	.st1{fill:#4A4A49;}
	.st2{fill:#FFFFFD;}
</style>
<g>
	<path class="st0" d="M60.25,30.36c0,15.74-12.76,28.5-28.51,28.5c-15.75,0-28.51-12.76-28.51-28.5c0-15.74,12.76-28.5,28.51-28.5
		C47.49,1.86,60.25,14.62,60.25,30.36"/>
	<polygon class="st1" points="38.76,12.52 38.76,13.37 38.97,14.16 39.08,14.8 39.14,15.19 39.27,15.3 39.31,15.21 39.43,15.12 
		38.9,13.09 38.91,12.85 38.86,12.64 	"/>
	<path class="st1" d="M39.6,18.74c0,0,0.1,0.03,0.05,0.6c0,0,0.07,0.23,0.06,0.35v0.05c0,0,0.39,0.83,0.39,0.93
		c0,0,0.1,0.34,0.06,0.61c0,0,0.05,0.06,0.01,0.15c0,0,0,0.04,0.01,0.05c0,0,0.05,0.02-0.02,0.15c0,0,0.07,0.11-0.01,0.24
		c0,0-0.12,0.41-0.16,0.57c0,0-0.03,1.13,0.01,1.52c0,0,0.06,1.15,0.2,1.29c0,0-0.26-0.26-0.43-0.25c0,0-0.49,0.22-0.85-0.13
		c0,0,0.42,0.26,0.81,0.1l0.29-0.1c0,0,0.04-0.12-0.39-0.12c0,0,0.33-0.03,0.37-0.14c0,0-0.6,0.01-0.63-0.01c0,0,0.6-0.06,0.58-0.19
		c0,0-1.03,0.07-1.09,0.01c0,0,1.01-0.07,1.07-0.14c0,0,0.12-0.12-0.04-0.1c0,0-0.75,0.15-0.96,0.1c0,0,0.97-0.03,1.02-0.28
		c0,0-0.8,0.15-0.93,0.1c0,0,0.86-0.04,0.83-0.28c0,0-0.47,0.14-0.83,0.09c0,0,0.81-0.14,0.89-0.26c0,0-0.6,0.12-0.89,0.1
		c0,0,0.83-0.11,0.83-0.32c0,0,0.08-1.01,0.14-1.05l0.14-0.52c0,0,0.06-0.15,0-0.24c0,0,0.09-0.12,0.05-0.14
		c0,0-0.05-0.05-0.04-0.08c0,0,0.06-0.04,0-0.15c0,0,0.04-0.5-0.18-0.93l-0.26-0.58c0,0-0.03-0.39-0.08-0.39
		C39.62,19.35,39.68,18.8,39.6,18.74"/>
	<path class="st1" d="M24.24,22.82c0.02-0.01,0.03-0.02,0.05-0.04C24.29,22.78,24.27,22.8,24.24,22.82"/>
	<path class="st1" d="M23.66,20.33L23.66,20.33c0.01,0,0.01-0.01,0.01-0.01L23.66,20.33z"/>
	<path class="st1" d="M22.95,25.93c0,0,0.04,0,0.09,0C23.01,25.93,22.98,25.93,22.95,25.93"/>
	<polyline class="st1" points="43.14,31.51 43.14,31.51 43.14,31.51 	"/>
	<path class="st1" d="M28.25,27.21c0.01-0.02,0.02-0.05,0.02-0.07C28.27,27.14,28.26,27.17,28.25,27.21"/>
	<path class="st1" d="M27.65,27.78c-0.02,0-0.03,0-0.05,0C27.6,27.78,27.62,27.78,27.65,27.78"/>
	<path class="st1" d="M28.25,8.24c-0.01,0-0.03-0.01-0.04-0.02c0-0.01,0-0.01,0,0c-0.58-0.2-1.25-1.02-1.25-1.02
		c-0.74,0.08-1.37-0.48-1.37-0.48s0.57-1.01,2.44-1.11c0,0,0.66-0.55,1.15-0.44c0,0,0.26-0.31,0.98-0.43c0,0,0.62,0.06,0.91-0.03
		c0,0,1.18-0.4,2.14-0.16c0,0,0.52,0,1.03,0.18c0,0,1.98,0.4,3.17,1.52c1.19,1.12,1.45,2.43,1.48,2.91l-0.04,0.26
		c0,0,0.27,0.67,0.26,0.96c0,0,0.17,0.34,0.22,0.6c0,0,0.74,0.83,0.65,2.58c0,0-0.16-1.45-0.72-1.81c0,0-0.35-0.22-0.36-0.65
		c0,0-0.74-0.59-0.37,0.81c0,0-1.15-2.26-4.13-3.46c0-0.03,0-0.03,0,0c0,0-0.52,0.02-0.49-0.01c0,0,0.21,0.05,0.38-0.37
		c0,0-0.23,0.31-0.82,0.24c0,0,0.76-0.08,0.68-0.49c0,0-0.33,0.31-1.06,0.37c0,0,0.6-0.25,0.55-0.91c0,0-0.31-0.38,0-0.93
		c0,0-0.01-0.25-0.28,0.19c0,0-0.12,0.22,0.08,0.59c0,0,0.35,0.94-0.84,1.06c0,0,0.33-0.06,0.53-0.7c0,0-0.19,0.55-0.89,0.63
		c0,0,0.93-0.19,0.69-1.08c0,0-0.25-0.5,0.21-1.13c0,0-0.44,0.27-0.36,0.97c0,0,0.5,1.02-0.62,1.16c0,0,0.33-0.09,0.51-0.34
		c0,0-0.45,0.41-1.57,0.25c0,0,0.59-0.23,0.78-0.98c0,0-0.27,0.76-0.99,0.98c0,0,0.53-0.59,0.62-0.89c0,0-0.4,0.6-0.8,0.84
		c0,0,0.94-0.71,0.91-1.66c0,0-0.29,0.23-0.3,0.45c0,0-0.05,0.56-0.31,0.63c0,0,0-0.58,0.54-1.38c0,0-0.24-0.06-0.55,0.72
		c0,0,0.01-0.43,0.42-0.83c0,0-0.52,0.03-0.76,1.57c0,0-0.12,0.44-0.37,0.47c0,0,0.31-0.06,0.3-0.41c0,0-0.11-0.59,0.19-1.19
		c0,0-0.22-0.16-0.3,0.88c0,0-0.07,0.55-0.45,0.74c0,0,0.37-0.24,0.38-0.64c0,0-0.09-0.78,0.33-1.11c0,0-0.07-0.48-0.42,0.31
		c0,0,0.02,0.52-0.27,0.55c0,0,0.14-0.06,0.14-0.29c0,0-0.03-0.76,0.55-0.79c0,0,0.05-0.08-0.04-0.11c0,0-0.84,2.31-1.82,2.28
		c0,0,0.97-0.59,0.99-1.21c0,0,0.08-0.8,0.55-1.09c0,0-0.61,0.27-0.71,1.17c0,0,0.01-0.82,0.39-1.08c0,0-0.37-0.17-0.81,1.23
		c0,0-0.04,0.79-0.4,0.93c0,0,0.36-0.39,0.32-0.69c0,0,0.17-1.23,0.62-1.47c0,0-0.68,0.67-0.66,1.12c0,0-0.08,0.91-0.52,1.11
		c0,0,0.46-0.51,0.4-1.04c0,0,0.26-0.76,0.39-0.88c0,0-0.5,0.49-0.55,1.06c0,0-0.09,0.78-0.49,0.97c0,0,0.29-0.58,0.28-1.02
		c0,0-0.06-0.34,0.17-0.78c0,0-0.42,0.72-0.37,1.13C28.45,7.57,28.44,8.1,28.25,8.24"/>
	<path class="st1" d="M24.72,18.73c-0.37-0.17-2.34,1.84-2.34,1.84c-0.44,0.43-1.45-0.22-1.45-0.22c-0.93-0.79-2.33-0.21-2.33-0.21
		l-0.04-0.17c-0.49,0.63-0.79,0.48-0.79,0.48c0.91-0.48,0.86-1.33,0.86-1.33c-0.86,1.05-1.3,0.83-1.3,0.83
		c0.11-0.03,0.6-0.45,0.6-0.45c0.3-0.29,0.37-0.57,0.37-0.57l0.34-0.82c0.24-0.65-0.03-2.04-0.03-2.04
		c-0.18-1.09,0.17-2.39,0.17-2.39l0.21-1.17c0-0.85,0.84-1.55,0.84-1.55c0.19-0.13,0.53-0.62,0.53-0.62
		c0.2-0.59,1.35-1.36,1.35-1.36c0.57-0.14,1.15-0.84,1.15-0.84c1.08-1.79,2.62-1.32,2.62-1.32s0.45,0.42,1.41,0.52
		c0,0,0.93,0.94,1.17,0.91c0,0-0.06,0.15-0.53,0.02c0,0-1.37-0.14-2.25,0.61c0,0,1.4-0.65,2.15-0.38c0,0-1.63,0.05-1.99,0.64
		c0,0,1.08-0.55,1.78-0.43c0,0-2.05,0.28-2.62,1.49c0,0,0.87-0.78,0.99-0.72c0,0-1.03,0.87-1.09,1.14l-0.04,0.16
		c0,0,0.27-0.31,0.31-0.27l-0.27,0.45c0,0,0.85-0.75,0.98-0.67c0,0-1.46,0.91-1.46,1.92c0,0,0.86-0.55,0.93-0.61
		c0,0-1.03,1.01-1.08,1.28c0,0-0.39,0.85-0.68,0.92c0,0,0.14,0.25,1.15-0.6c0,0-0.34,0.51-0.23,0.62c0,0-0.11,0.3-0.32,0.24
		c0,0-0.86,0.38-0.29,0.81l0.18-0.01c0,0-0.48,0.64-0.63,0.58c0,0-0.03,0.37,0.86-0.39c0,0-0.3,0.53-0.66,0.68
		c0,0,0.42,0.08,0.99-0.67c0,0-0.41,0.97-0.77,1.09c0,0,0.67-0.22,0.75-0.37c0,0-0.34,0.6-0.47,0.58c0,0-0.12,0.7,0.98-0.78
		c0,0-0.68,1.08-0.98,1.18c0,0,0.32,0.13,0.75-0.37c0,0-0.58,0.91-0.95,0.93c0,0,0.09,0.36,1.05-0.16c0,0-0.49,0.72-1.29,1.02
		c0,0,1.15,0.23,1.36,0.43L24.72,18.73z"/>
	<path class="st1" d="M29.41,19.16c0,0,0.02,0.06,0.29-0.07c0,0,0.9-0.63,1.41-0.69c0,0,0.9-0.05,1.5,0.44c0,0,0.02,0.04,0.06,0.06
		c0.03,0.03,0.17,0.1,0.22,0.12c0,0,0.19,0.05-0.02,0.17c0,0-0.32,0.05-0.36,0.02c0,0-0.29,0.07-0.34,0.05c0,0,0.2-0.42-0.38-0.62
		c0,0,0.35,0.28-0.2,0.86c0,0-0.42,0.08-0.62-0.01c0,0-0.35-0.16-0.33-0.58c0,0-0.01-0.1-0.09-0.1c0,0-0.35,0-0.71,0.34
		c0,0-0.52,0.17-0.62,0.17c0,0-0.2-0.02-0.33,0.05C28.87,19.38,29.36,19.18,29.41,19.16"/>
	<path class="st1" d="M29.23,19.34c0,0,1.21,0.43,2.35,0.17c0,0-1.25,0.25-1.83-0.21c0,0,0.01-0.12,0.05-0.14
		c0.04-0.02-0.6,0.16-0.6,0.16L29.23,19.34z"/>
	<path class="st1" d="M32.19,19.19c0,0-0.43,0.33-0.81,0.35c0,0,0.43-0.01,0.81-0.28V19.19z"/>
	<path class="st1" d="M37.5,18.29c0,0,0.02,0.15,0.02,0.18c0,0,0.03,0.44,0.49,0.42c0,0,0.65-0.01,0.69-0.58
		c0,0,0.05-0.39,0.26-0.01c0,0,0.05,0.11-0.05,0.24c0,0,0.24-0.17,0-0.55c0,0-0.7-0.73-1.73,0.34c-0.13,0.14-0.36,0.47-0.66,0.39
		C36.54,18.72,36.96,18.86,37.5,18.29"/>
	<path class="st1" d="M38.92,18.54c0,0-0.11,0.18-0.59,0.28l-0.1,0.03c0,0,0.41-0.01,0.71-0.2c0,0,0.12-0.15,0.09-0.34
		C39.03,18.32,38.99,18.52,38.92,18.54"/>
	<path class="st1" d="M35.81,17.52c0,0,1.21,2.3,1.13,2.63h0.1C37.04,20.15,36.72,18.94,35.81,17.52"/>
	<path class="st1" d="M36.94,20.15l-0.07,0.04l0.07,0.05l0.25-0.03c0,0-0.11-0.06-0.16-0.07C36.98,20.12,36.94,20.15,36.94,20.15"/>
	<path class="st1" d="M35.44,24.26c0,0-0.45,0.15-0.57,0.25c0,0-0.34,0.07-0.52-0.25c0,0,0.64-1.2,1.71-0.44c0,0,0.36,0.2,0.5,0.08
		c0,0,0.06,0.15-0.28,0.18c0,0,0.41,0.14,0.5,0.09c0,0-0.46,0.25-0.8,0.01c0,0-0.31-0.19-0.62,0.42
		C35.36,24.6,35.28,24.45,35.44,24.26"/>
	<path class="st1" d="M34.24,23.03c0,0-0.35,0.73,0.11,0.96c0,0,0.08,0.01,0.15-0.09c0,0,0.22-0.21,0.32-0.16l-0.46,0.48
		c0,0-0.06,0.02-0.13-0.04c0,0-0.08-0.11-0.12-0.3c0,0,0.1,0.1,0.17,0.11C34.28,23.99,33.85,23.69,34.24,23.03"/>
	<path class="st1" d="M38.09,22.89c0,0,0.58,0.92-0.42,1.19c0,0-0.09,0.06-0.11,0.13c0,0-0.18-0.05-0.4-0.01c0,0-0.3-0.01-0.33-0.03
		c0,0,0.27,0.02,0.29-0.12c0,0-0.65,0.01-0.65,0c0,0,0.65-0.06,0.81-0.15c0,0-0.65,0.02-0.68,0c0,0,0.63-0.05,0.68-0.08
		c0,0-0.02-0.05-0.58-0.08c0,0,0.68,0.03,0.74-0.04c0,0,0.04-0.02-0.24-0.04c0,0,0.5-0.02,0.42-0.08l-0.49-0.01
		c0,0,0.53-0.02,0.49-0.13c0,0-0.44-0.05-0.49-0.08c0,0,0.16,0.04,0.23,0.03c0,0,0.46-0.05,0.28-0.17c0,0-0.19,0.04-0.34-0.02
		c0,0,0.37,0.02,0.47-0.06c0,0-0.11-0.08-0.47-0.15c0,0,0.67,0.07,0.77,0.08c0.01,0,0.01,0,0.01,0
		C38.07,23.08,38.12,22.99,38.09,22.89"/>
	<path class="st1" d="M37.01,20.23l0.19,0.24h0.02L37.2,20.6c0,0,0.16-0.01,0.2-0.02c0,0-0.09,0-0.13,0.11c0,0,0.01,0.17,0.13,0.25
		c0,0-0.04,0.1,0,0.19l0.29,0.69l0.23,0.57l0.17,0.47l0.04,0.16h-0.04c0,0,0.01-0.08-0.04-0.13h-0.7c0,0-0.11-0.08,0.61-0.07
		c0,0,0.13,0-0.04-0.06l-0.33-0.06h0.34c0,0,0.2-0.14-0.41-0.14l0.39-0.05c0,0,0.09-0.12-0.56-0.13l0.47-0.05
		c0,0,0.04-0.09-0.08-0.07l-0.22-0.07h0.22v-0.14c0,0-0.22-0.04-0.27-0.04l0.2-0.04c0,0,0.1-0.1-0.17-0.11h0.16
		c0,0,0.01-0.18-0.36-0.18c0,0,0.28-0.04,0.29-0.06c0,0-0.05-0.01-0.06-0.01c0,0-0.04-0.08-0.19-0.09l0.21-0.01l-0.03-0.01
		c0,0-0.04-0.19-0.4-0.1c0,0,0.05-0.06,0.29-0.03c0,0,0.19-0.16-0.37-0.16c0,0,0.11-0.04,0.32,0l-0.08-0.19l-0.43-0.03l0.27-0.04
		c0,0,0.04-0.19,0.01-0.25c0,0-0.19-0.1-0.24-0.1l0.23-0.01c0,0-0.14-0.15-0.24-0.11c0,0-0.06-0.13,0.16-0.12
		c0,0-0.03-0.09-0.09-0.13C36.93,20.23,36.98,20.19,37.01,20.23"/>
	<path class="st1" d="M22.19,20.77c-0.46,0.39-1.35-0.2-1.81-0.41c-0.4-0.19-0.89-0.27-1.32-0.13c-1.31,0.42-1.62,1.98-1.24,3.13
		c0.45,1.36,1.72,2.31,2.78,3.18c0.38,0.31,0.73,0.69,1.16,0.93c0.3,0.16,0.62,0.21,0.95,0.24c0.34,0.03,0.61-0.28,0.9-0.25
		c0.13,0.01,0.46-0.15,0.19-0.18c-0.25-0.03-0.39-0.04-0.62,0.05c-0.08,0.03-0.16,0.07-0.22,0.13c-0.26,0.22-0.74-0.05-1.01-0.2
		c-0.35-0.19-0.69-0.59-1-0.84c-1.11-0.91-2.31-1.85-2.78-3.28c-0.4-1.23,0.46-3.42,2.02-2.56c0.57,0.32,1.74,0.79,2.36,0.26
		C22.68,20.73,22.28,20.7,22.19,20.77"/>
	<path class="st1" d="M22.29,24.59c0.11,0.11,0.18,0.09,0.18,0.09c0.11-0.11,0.27-0.05,0.27-0.05c0.28,0.15,0.58,0.04,0.58,0.04
		c-1.25-0.21-1.4-1.38-1.4-1.38c-0.07-0.24-0.28-0.36-0.28-0.36c-0.28-0.59-0.55-0.8-0.55-0.8c-1.39-1.8-2.39-0.89-2.39-0.89
		c-0.57,0.7-0.3,1.43-0.3,1.43l0.01,0.04c0,0,0.44-0.19,0.46-0.17c0,0-0.01-0.07-0.44,0.09c0,0-0.26-0.06,0.52-0.29
		c0,0,0.07-0.11-0.56,0.11c0,0-0.08-0.17,0.64-0.3c0,0-0.13-0.05-0.66,0.1c0,0-0.06-0.15,0.16-0.16c0,0,0.4-0.14,0.46-0.14
		c0,0-0.25,0-0.45,0.07c0,0-0.17-0.18,0.5-0.28c0,0,0.1-0.07-0.43,0.03l0.05-0.08c0,0,0.79-0.07,0.83-0.08c0,0-0.54-0.01-0.79,0.04
		c0,0,0.13-0.12,0.36-0.14c0,0,0.05-0.04,0.06-0.05c0,0,0.42,0,0.46,0c0,0-0.15-0.08-0.42-0.05c0,0,0.02-0.02,0.02-0.05
		c0,0,0.54-0.22,0.77,0.02c0,0,0.35,0.1,0.28,0.14l-0.22,0.03c0,0,0.29,0.03,0.33,0.08l-0.19,0.12h0.19c0,0,0.13,0.13-0.08,0.17
		c0,0,0.5,0,0.56,0.08L20.88,22c0,0-0.6,0.07-0.61,0.05c0,0,0.18,0.08,0.62-0.04c0,0,0.15,0.05-0.57,0.13c0,0,0.68,0.04,0.71,0.03
		c0,0,0.22,0.21-0.11,0.17h-0.46c0,0,0.7,0.02,0.81,0.1c0,0,0.23,0.09,0.12,0.4c0,0-0.61,0.9-0.51,1.03l0.65-0.03
		c0,0,0.04-0.09-0.49-0.05c0,0,0.33-0.23,0.76-0.15l-0.28-0.1c0,0,0.15-0.18,0.29-0.05c0,0-0.02,0.28,0,0.34
		c0,0,0.34,0.04,0.23,0.12c0,0-0.37,0.07-0.31,0.15h0.31c0,0,0.15,0.08-0.23,0.14c0,0,0.48,0.05,0.5,0.05c0,0,0.05,0.13-0.36,0.1
		c0,0,0.18,0.03,0.39,0.03c0,0,0.23,0.1-0.79,0.22L22.29,24.59z"/>
	<path class="st1" d="M18.45,22.78l0.35-0.11C18.8,22.67,18.6,22.8,18.45,22.78"/>
	<path class="st1" d="M18.45,22.94l0.36-0.07C18.82,22.87,18.7,22.98,18.45,22.94"/>
	<path class="st1" d="M18.57,23.09h0.24C18.82,23.09,18.76,23.18,18.57,23.09"/>
	<path class="st1" d="M18.57,23.29c0,0,0.32-0.02,0.44-0.09C19.01,23.21,18.87,23.36,18.57,23.29"/>
	<path class="st1" d="M18.63,23.41c0,0,0.32,0.01,0.41-0.1C19.05,23.31,18.9,23.52,18.63,23.41"/>
	<path class="st1" d="M20.6,24c0,0,1.02,0,1.07,0C21.67,24,21.08,24.08,20.6,24"/>
	<path class="st1" d="M20.6,24.15c0,0,1.06,0.03,1.26,0.07C21.85,24.23,21.09,24.25,20.6,24.15"/>
	<path class="st1" d="M20.73,24.38c0,0,1.2,0.02,1.25,0.02C21.98,24.4,21.05,24.48,20.73,24.38"/>
	<path class="st1" d="M20.73,24.58c0,0,1.03-0.05,1.3,0C22.03,24.57,21.03,24.67,20.73,24.58"/>
	<path class="st1" d="M20.83,24.71c0,0,0.53-0.02,0.65,0.05C21.48,24.77,20.93,24.75,20.83,24.71"/>
	<path class="st1" d="M21.03,24.92c0,0,0.64,0,0.66,0C21.69,24.92,21.49,25.02,21.03,24.92"/>
	<path class="st1" d="M34.11,23.14c0,0-0.09-0.22,0.16-0.68c0,0-0.12,0.17-0.15,0.26c0,0-0.03-0.24,0.03-0.35
		C34.14,22.37,34,22.94,34.11,23.14"/>
	<path class="st1" d="M32.33,19.25c0,0-0.11,0.25-0.52,0.32c0,0,0.22,0.02,0.41-0.12c0,0-0.17,0.49-1.56,0.4c0,0-0.6,0.03-1.05-0.15
		c0,0,1.09,0.2,1.88,0.27c0,0,0.09,0.06,0.29-0.13c0,0,0.54-0.06,0.56-0.06c0,0-0.11-0.07-0.1-0.13c0,0,0.05-0.09,0.55-0.08
		l-0.23-0.13l0.24-0.08c0,0-0.35,0.04-0.31-0.17l-0.16,0.02L32.33,19.25z"/>
	<path class="st1" d="M33.96,22.45c0,0-0.12,0.42-0.04,0.72C33.92,23.17,33.77,23.14,33.96,22.45"/>
	<path class="st1" d="M32.68,23.68c0,0,0.29,0.02,0.51-0.08c0,0,0.22-0.05,0.26,0.01c0,0-0.18,0.09-0.24,0.09c0,0,0,0.08-0.07,0.06
		c0,0,0-0.06-0.08-0.04c0,0-0.32,0.04-0.14,0.14l0.13-0.03c0,0,0.17-0.02,0.32-0.06c0,0-0.1,0.07-0.22,0.09c0,0-0.19-0.01-0.22,0.1
		c0,0-0.04,0.06,0.27,0.06c0,0-0.24,0.05-0.27,0.05c0,0,0.02,0.11-0.02,0.14l0.09,0.01c0,0-0.11,0.08-0.25,0.09
		c0,0,0.03,0.03-0.11,0.14c0,0,0.3-0.08,0.32-0.07c0,0-0.23,0.08-0.28,0.1c0,0-0.12,0.04-0.29,0.07l-0.31,0.05
		c0,0,0.66-0.13,0.64-0.28c0,0-0.2,0.06-0.55,0.06c0,0,0.96-0.16,0.72-0.28c0,0-0.12,0.07-0.68,0.09c0,0,0.56-0.08,0.63-0.14
		c0,0,0.36-0.17-0.44-0.02c0,0,0.45-0.14,0.5-0.15c0,0-0.1-0.06,0.03-0.17C32.93,23.7,32.72,23.69,32.68,23.68"/>
	<path class="st1" d="M37,18.73c0,0-0.2,0.11,0.1,0.15c0,0,0.66,0.08,0.58-0.08c0,0,0.1,0.14,0.35,0.08c0,0-0.45,0.04-0.68,0.03
		c0,0-0.14,0.03-0.24,0.01c0,0-0.39-0.04-0.45-0.09c0,0-0.15,0-0.11-0.11c0,0,0.01,0.01,0.13,0.01c0,0,0.13,0.01,0.3-0.09
		c0,0,0.05,0.01,0.11-0.02L37,18.73z"/>
	<path class="st1" d="M32.75,18.82c0,0-0.01-0.36-1.67-0.56c0,0,0.62,0.04,0.98,0.14c0,0,0.13-0.17-0.41-0.23
		c0,0-0.62-0.18-1.02,0.1c0,0,0.35-0.29,0.83-0.23c0,0,0.7,0.14,0.68,0.33c0,0,0.1,0.05,0.29,0l0.38,0.27c0,0,0.13-0.13,0.18-0.16
		c0,0-0.22,0.17,0.27,0.17c0,0,0.05,0.06-0.29,0.05c0,0,0.07,0.14,0.27,0.11c0,0-0.21,0.05-0.32-0.08
		C32.9,18.73,32.77,18.69,32.75,18.82"/>
	<path class="st1" d="M31.16,25.45c0,0,0.15-0.01,0.36-0.05c0,0,0.38-0.09,0.52-0.05c0,0-0.22-0.02-0.35,0.12
		c0,0,0.13,0.13,0.27-0.05c0,0-0.01,0.19-0.25,0.11c0,0-0.25,0.03-0.45,0.11c0,0,0.32-0.14,0.41-0.16
		C31.67,25.49,31.33,25.42,31.16,25.45"/>
	<path class="st1" d="M31.62,25.01c0,0,0.65-0.03,0.93-0.23C32.55,24.78,32.28,25.08,31.62,25.01"/>
	<path class="st1" d="M31.76,24.81c0,0,0.71-0.05,0.96-0.25C32.73,24.56,32.22,24.9,31.76,24.81"/>
	<path class="st1" d="M31.56,25.2c0,0,0.6-0.05,0.93-0.22C32.49,24.98,32.11,25.19,31.56,25.2"/>
	<path class="st1" d="M27.18,27.46c0,0,0.05-0.85,0.98-0.82c0,0-0.46-0.21-1.03,0.27c0,0,0.06,0.01,0.19-0.04
		C27.33,26.87,27.21,26.91,27.18,27.46"/>
	<path class="st1" d="M34.91,24.7c0,0-0.27,0.29-0.22,0.62C34.69,25.33,34.86,24.68,34.91,24.7"/>
	<path class="st1" d="M31.33,25.95c0,0-0.12,0.21,0.19,0.14c0,0-0.11,0.11-0.27,0.03C31.25,26.11,31.21,26.01,31.33,25.95"/>
	<path class="st1" d="M31.02,25.89c0,0,0.45-0.27,0.73-0.15C31.75,25.74,31.47,25.55,31.02,25.89"/>
	<path class="st1" d="M30.48,26.09c0,0,0.31,0.06,0.65-0.12C31.13,25.96,30.81,26.22,30.48,26.09"/>
	<path class="st1" d="M31.52,27.04c0,0,0.59-0.82,0.96-1.02C32.49,26.02,31.74,26.36,31.52,27.04"/>
	<path class="st1" d="M25.05,25.45c0,0-0.05-0.36,0.36-0.62C25.41,24.83,25.14,25.07,25.05,25.45"/>
	<path class="st1" d="M25.43,25.24c0,0-0.22,0.35,0,0.43C25.43,25.68,25.33,25.53,25.43,25.24"/>
	<path class="st1" d="M26.88,26.43c0,0-0.2-0.42,0.38-0.49C27.25,25.95,26.8,26.04,26.88,26.43"/>
	<path class="st1" d="M27.33,27.48c0,0-0.09-0.36,0.16-0.49c0,0,0.25-0.09,0.38-0.2c0,0-0.29,0.29-0.39,0.29
		C27.47,27.08,27.33,27.17,27.33,27.48"/>
	<path class="st1" d="M26.72,26.35c0,0-0.27,0.33-0.1,0.61c0,0-0.04-0.27,0.15-0.24c0,0,0.11-0.1,0.18-0.09c0,0,0.13,0.15,0,0.39
		l0.28-0.32c0,0,0.04-0.18,0.12-0.2c0,0-0.33,0.11-0.32,0.16c0.02,0.05,0.03-0.13-0.22-0.06C26.57,26.69,26.71,26.54,26.72,26.35"/>
	<path class="st1" d="M30.74,26.28c0,0-0.21,0.34,0,0.38c0,0,0.22,0.05,0.3-0.18c0,0-0.01,0.46-0.53,0.66c0,0,0.33-0.25,0.41-0.43
		c0,0-0.57,0.3-0.82,0.3c0,0,0.45-0.05,0.54-0.3c0,0-0.45,0.16-0.54,0.06c0,0,0.49-0.03,0.49-0.12
		C30.59,26.66,30.58,26.34,30.74,26.28"/>
	<path class="st1" d="M31.19,26.7c0,0,0.36-0.57,0.61-0.59c0,0-0.45,0.24-0.42,0.52c0,0,0.17-0.1,0.21-0.18c0,0-0.45,1.01-0.85,0.68
		c0,0,0.36,0.14,0.45-0.27c0,0-0.3,0.07-0.03-0.14L31.19,26.7z"/>
	<path class="st1" d="M25.83,25.78c0,0,0.18-0.26,0.52-0.23c0,0,0.23,0.13,0.26-0.41c0,0,0.16,0.59-0.42,0.47c0,0-0.22,0.08,0,0.18
		c0,0-0.14,0.08-0.14-0.12C26.05,25.68,26.01,25.62,25.83,25.78"/>
	<path class="st1" d="M27.53,27.31c0,0,0.04-0.27,0.24-0.35c0,0,0.29-0.12,0.31-0.21c0,0-0.14,0.26-0.33,0.31
		C27.75,27.06,27.63,27.1,27.53,27.31"/>
	<path class="st1" d="M28.09,27.01c0,0,0.1,0.34-0.36,0.53c0,0-0.04,0.27-0.35,0.06c0,0,0.2,0.18,0.24-0.08c0,0,0.09-0.02-0.11-0.09
		c0,0,0.16-0.05,0.35-0.31c0,0-0.02,0.19-0.18,0.35C27.67,27.47,27.82,27.51,28.09,27.01"/>
	<path class="st1" d="M33.48,22.92c0,0-0.08,0.24,0.02,0.51C33.5,23.43,33.33,23.17,33.48,22.92"/>
	<path class="st1" d="M33.69,22.89c0,0-0.11,0.14-0.01,0.46C33.67,23.35,33.63,23.14,33.69,22.89"/>
	<path class="st1" d="M33.02,23.26c0,0,0.36,0.07,0.73-0.17C33.76,23.1,33.42,23.26,33.02,23.26"/>
	<path class="st1" d="M33.05,23.45c0,0,0.31-0.04,0.46-0.1c0,0,0.19-0.11,0.34-0.03c0,0,0.06-0.07-0.42,0.07
		C33.43,23.4,33.31,23.47,33.05,23.45"/>
	<path class="st1" d="M38.76,12.52c0,0,0.17,0.16,0.19,0.36c0,0-0.02,0.14-0.02,0.18c0,0,0.47,1.98,0.52,2.06
		c0,0-0.12,0.07-0.13,0.12c0,0,0.02-0.11-0.05-0.18c0,0,0.12-0.08,0.09-0.11c0,0-0.03-0.14-0.05-0.19l-0.4-1.66l0.02-0.22
		C38.92,12.87,38.84,12.53,38.76,12.52"/>
	<path class="st1" d="M39.24,11.74c0,0-0.06,0.55-0.17,0.83l-0.1,0.26c0,0,0.3-0.49,0.33-1.06L39.24,11.74z"/>
	<polygon class="st1" points="38.51,11.76 38.53,11.96 38.76,12.42 38.59,11.82 	"/>
	<path class="st1" d="M28.8,18.82c0,0,0.86-0.9,1.22-0.82c0,0,0.3,0.04,0.62-0.11c0,0,0.15-0.09,0.36-0.1c0,0,0.03-0.12,0.16-0.06
		c0,0,0.02,0.21,0.14,0.05c0,0,0.07-0.03,0.15,0.07c0,0,1.08,0.39,1.89-0.01c0,0-0.03-0.04,0.04-0.01c0,0-0.14-0.25,0.16-0.27
		c0,0,0.25-0.04,0.42-0.11c0,0-0.52,0.04-0.6,0c0,0-0.02-0.08,0.14-0.07c0,0,0.77-0.1,0.98-0.2c0,0-1,0.26-1.03,0.09l0.09-0.09
		c0,0,0.73-0.02,0.94-0.17c0,0-0.29,0.1-0.54,0.03c0,0,0.18-0.18,0.49-0.19c0,0-0.2-0.08-0.02-0.19c0,0-0.34,0.08-0.23-0.2
		c0,0-0.29,0.05-0.31,0.07c0,0-0.18,0.02-0.19-0.1c0,0,0.03-0.1,0.56-0.05c0,0-0.48-0.14-0.83,0.1c0,0-0.22,0.24-0.78-0.03
		c0,0,0.19,0.14,0.61-0.04c0,0-0.61,0-0.89-0.1c0,0-0.4,0.49-0.76,0.42c0,0-0.12-0.25-0.32-0.29c0,0,0.1,0.13-0.19,0.23
		c0,0-0.15-0.05-0.34-0.02c0,0-0.04-0.22-0.28-0.22c0,0-0.22-0.05-0.29,0.09c0,0-0.13,0.19,0,0.23l0.11,0.07c0,0-0.21,0-0.3-0.03
		c0,0-0.1-0.15-0.02-0.31c0,0-0.12,0.18-0.18,0.17c0,0-0.04-0.09,0.02-0.22c0,0-0.13,0.31-0.5,0.24c0,0-0.31,0.05-0.25,0.25
		c0,0,0.03,0.13-0.26,0.1c0,0-0.13,0.1,0.1,0.2c0,0,0.02,0.1-0.21,0.08c0,0-0.13,0.12-0.1,0.16c0,0,0.18,0.01,0.28-0.1
		c0,0,0.17-0.04,0.11,0.03c0,0-0.19,0.06-0.46,0.3c0,0-0.05,0.09,0.05,0.15c0,0-0.1,0.16-0.37,0.28c0,0,0.06,0.12,0.25,0.08
		c0,0,0.29-0.16,0.24,0.03c0,0-0.04,0.05-0.15,0.08c0,0-0.15-0.01-0.27,0.13c0,0,0.02,0.1-0.37,0.08c0,0,0.12,0.01,0,0.13
		c0,0,0.1-0.09,0.26-0.01c0,0,0.2-0.22,0.43-0.2l-0.39,0.26c0,0-0.23-0.01-0.3,0.16c0,0-0.17,0.18-0.39,0.13
		c0,0,0.33,0.07,0.46-0.13c0,0,0.19-0.17,0.21-0.06c0,0-0.1,0.11-0.17,0.13c0,0-0.08,0.2,0.53-0.23c0,0-0.39,0.04-0.07-0.12
		c0,0,0.3-0.22,0.36-0.17l-0.05,0.03l-0.2,0.2c0,0,0.17-0.07,0.19-0.04l-0.02,0.04l-0.15,0.37C28.6,18.96,28.77,18.97,28.8,18.82"/>
	<path class="st1" d="M39.96,16.73c0.12,0.03,0.14-0.23,0.14-0.23c0.15-0.17,0.17-0.12,0.17-0.12c0.07-0.06,0.03-0.19,0.03-0.19
		c-0.21-0.24,0.02-0.31,0.02-0.31c0.01-0.45-0.24-0.53-0.24-0.53c-0.11-0.13-0.64-0.17-0.64-0.17c-0.07,0-0.1,0.06-0.1,0.06
		c0.09-0.11,0.7,0.12,0.7,0.12c-0.13-0.01-0.56,0.09-0.56,0.09c-0.3,0.06-0.52,0.01-0.52,0.01c0.3,0.11,0.45,0.09,0.45,0.09
		c0.7-0.07,0.64,0.04,0.64,0.04c-0.01,0.05-0.61,0.07-0.61,0.07c-0.21-0.01-0.25-0.06-0.25-0.06c-0.05,0.11,0.03,0.16,0.03,0.16
		c0,0.13-0.21,0.08-0.21,0.08c-0.3-0.16-0.51-0.12-0.51-0.12c-0.74-0.08-1.3,0.03-1.3,0.03c0.14-0.01,0.45-0.01,0.45-0.01
		c0.32-0.02,0.63,0.04,0.63,0.04c0.04,0,0.07,0.02,0.07,0.02c-0.03,0.02-0.07,0.05-0.07,0.05c-0.08,0.04-0.64,0.09-0.64,0.09
		c-0.11,0.01-0.31,0.04-0.31,0.04c-0.23,0.09-0.08,0.14-0.08,0.14l0.12,0.04c0.06,0.03,0.29,0.04,0.29,0.04
		c0.16,0,0.37-0.06,0.37-0.06c0.56-0.05,0.59,0.13,0.59,0.13c-0.53-0.03-0.58,0.17-0.58,0.17c-0.6,0.08-0.76-0.03-0.76-0.03
		s0.47-0.02-0.01,0c-0.48,0.02-0.35-0.15-0.35-0.15c-0.05,0.01-0.53,0.05-0.53,0.05c0.04,0.02,0.47-0.01,0.47-0.01
		c-0.05,0.08-0.3,0.15-0.3,0.15c-0.46,0.23-0.51,0.08-0.51,0.08l-0.05,0.05l-0.85,0.07c0,0,0.86,0.01,0.99,0.06
		c0,0,0.01,0.12-0.14,0.13l-0.74-0.07c0,0,0.02,0.08,0.74,0.1c0,0,0.04,0.1-0.14,0.14c0,0-0.42,0.05-0.69,0.02
		c0,0,0.69,0.01,0.69,0.11c0,0,0.03,0.07-0.42,0.03l0.38,0.09c0,0,0.13,0.1-0.01,0.11c0,0,0.08,0.17,0.1,0.21
		c0,0,0.32-0.18,0.6-0.25c0,0,1.46,0.07,1.82-0.01c0,0,0.48-0.15,0.86-0.1c0,0-0.07-0.19,0.09-0.19c0,0,0.03-0.19,0.23-0.19
		C39.48,16.84,39.75,16.68,39.96,16.73"/>
	<path class="st1" d="M36.01,17.78l0.29-0.21c0,0,0.22-0.12,0.24-0.12c0.03,0,0.18-0.12,0.18-0.12l-0.07-0.05l-0.47,0.07l-0.31,0.22
		C35.88,17.57,35.91,17.75,36.01,17.78"/>
	<path class="st1" d="M39.6,18.74l0.06-0.02c0.05,0,0.06-0.09,0.06-0.09c0.04-0.08-0.06-0.74-0.06-0.74
		c0.07-0.08,0.32-0.65,0.32-0.65c0.05-0.17,0-0.4,0-0.4s-0.02,0.29-0.06,0.37l-0.32,0.65c0,0,0.07,0.4,0.06,0.47
		c0,0-0.01,0.23-0.06,0.33l-0.02,0.09L39.6,18.74z"/>
	<path class="st1" d="M39.06,18.01c0,0-0.07-0.35-1.74-0.24c0,0,0.62-0.08,0.99-0.04c0,0,0.09-0.19-0.44-0.15
		c0,0-0.64-0.07-0.99,0.28c0,0,0.3-0.35,0.78-0.38c0,0,0.71,0.02,0.73,0.2c0,0,0.11,0.03,0.29-0.05l0.42,0.2c0,0,0.1-0.15,0.15-0.19
		c0,0-0.19,0.21,0.29,0.12c0,0,0.06,0.06-0.28,0.11c0,0,0.1,0.12,0.28,0.06c0,0-0.2,0.09-0.33-0.02
		C39.2,17.9,39.06,17.89,39.06,18.01"/>
	<path class="st1" d="M39.08,18.82c0,0,0.01,0.08-0.09,0.13c0,0-0.01,0-0.01,0c0,0-0.13-0.09-0.26,0.1c0,0-0.29-0.02-0.49,0.26
		c0,0-0.11,0.04-0.17-0.1c0,0-0.2-0.17-0.33,0.09c0,0-0.18,0.12-0.15-0.09c0,0,0.08-0.1-0.11-0.08c0,0-0.66,0-0.89-0.22
		c0,0,0.04,0.22,0.21,0.29c0,0,0.39-0.02,0.4,0.1h-0.04c0,0,0.08,0.01,0.06,0.06c0,0-0.04,0.05,0.13,0.07c0,0,0.16,0.03,0.19,0.06
		c0,0,0.25,0.24,0.53,0.18c0,0,0.44-0.03,0.66-0.16c0,0-0.1-0.06-0.04-0.08l0.04-0.13c0,0,0.17-0.22,0.42-0.24
		c0,0-0.15-0.04-0.16-0.07C38.99,18.99,39.13,18.91,39.08,18.82"/>
	<path class="st1" d="M38.99,18.65c0,0,0.1,0.12,0.09,0.17C39.08,18.82,39.09,18.67,38.99,18.65"/>
	<polygon class="st1" points="39.58,18.75 39.53,19.25 39.58,19.58 39.71,19.78 39.63,19.26 39.66,19.03 39.64,18.83 	"/>
	<path class="st1" d="M36.15,26.61c0,0,0.1,0.13,0.07,0.3c0,0,0.1,0.06,0.12,0.06C36.34,26.98,36.47,26.58,36.15,26.61"/>
	<path class="st1" d="M29.13,19.23c0,0,0-0.09-0.28,0c0,0-0.51,0.08-0.61,0.08c0,0-0.33,0.02-0.37,0.03
		c-0.05,0.01,0.05-0.01,0.05-0.01s-0.34,0.02-0.19,0.15c0,0-0.16,0.07-0.31,0.07h0.56c0,0-0.05-0.17,0.22-0.12
		c0,0,0.02,0.23,0.08,0.24c0,0-0.02-0.26,0.16-0.24c0,0,0.09,0.13,0.07,0.24c0,0,0.03-0.29,0.11-0.27c0,0,0.12,0.04,0.17,0.08
		C28.78,19.48,28.64,19.3,29.13,19.23"/>
	<polygon class="st1" points="39.69,17.66 39.45,17.09 39.87,16.83 39.98,16.83 39.99,17.21 39.79,17.63 	"/>
	<path class="st1" d="M40.17,26.73c0.01,0.01,0.01,0.02,0.02,0.02C40.18,26.75,40.18,26.74,40.17,26.73"/>
	<path class="st1" d="M40.86,26.62c0.01,0.04,0.01,0.08,0.01,0.11C40.87,26.74,40.88,26.69,40.86,26.62"/>
	<path class="st1" d="M38.03,24.67c-0.03-0.01-0.06-0.02-0.09-0.02C37.95,24.65,37.98,24.66,38.03,24.67"/>
	<path class="st1" d="M39.66,26.03c-0.11-0.39-0.58-0.49-0.58-0.49C39.39,25.61,39.66,26.03,39.66,26.03"/>
	<path class="st1" d="M38.03,24.67c0.29,0.11,0.83,0.68,0.83,0.68C38.6,24.89,38.21,24.72,38.03,24.67"/>
	<path class="st1" d="M32.4,25.7c0,0,0.18-0.26,0.52-0.23c0,0,0.23,0.13,0.26-0.41c0,0,0.16,0.59-0.42,0.47c0,0-0.22,0.08,0,0.18
		c0,0-0.15,0.08-0.14-0.12C32.62,25.6,32.59,25.54,32.4,25.7"/>
	<path class="st1" d="M33.33,25.48c0,0-0.2-0.42,0.38-0.49C33.71,25,33.25,25.09,33.33,25.48"/>
	<path class="st1" d="M33.2,26.46c-0.01,0.02-0.01,0.03-0.01,0.04C33.2,26.5,33.2,26.48,33.2,26.46"/>
	<path class="st1" d="M34.12,24.65c0-0.01,0.01-0.02,0.01-0.03c-0.12,0.06-0.32,0.21-0.31,0.57C33.82,25.19,33.87,24.86,34.12,24.65
		"/>
	<path class="st1" d="M34.28,24.77c-0.08,0.12-0.19,0.27-0.25,0.41c-0.01,0.04-0.01,0.07-0.01,0.07c0-0.01-0.01-0.02-0.01-0.03
		c-0.03,0.07-0.05,0.14-0.04,0.19c0,0,0.03,0.2,0.27,0c0,0-0.24-0.03-0.14-0.28C34.1,25.12,34.19,24.92,34.28,24.77"/>
	<path class="st1" d="M35.5,24.61c0.25,0.03,0.33-0.15,0.34-0.23c-0.16,0.28-0.37,0.2-0.37,0.2c-0.18,0.2,0.09,0.23,0.09,0.23
		c0.02,0.05-0.13,0.27-0.15,0.28c0.01,0,0.02,0,0.03,0.01c0.02-0.05,0.09-0.12,0.09-0.12c0.09-0.13,0.04-0.21,0.04-0.21
		C35.35,24.73,35.5,24.61,35.5,24.61"/>
	<path class="st1" d="M34.39,24.62c-0.03,0.03-0.07,0.09-0.11,0.15c0.05-0.07,0.1-0.13,0.12-0.16C34.4,24.62,34.4,24.62,34.39,24.62
		"/>
	<path class="st1" d="M35.37,25.09c0,0,0.02,0,0.04,0c0.03-0.13-0.07-0.42-0.11-0.54c0,0-0.01,0-0.01,0
		c0.01,0.08,0.01,0.15-0.01,0.2l0.09,0.03c0,0-0.12,0.26-0.15,0.28C35.22,25.06,35.2,25.23,35.37,25.09"/>
	<path class="st1" d="M34.15,25.96c0,0-0.03,0.01-0.07,0.03C34.1,25.98,34.12,25.97,34.15,25.96"/>
	<path class="st1" d="M33.27,25.4c0-0.02-0.01-0.03-0.01-0.03c0,0.02-0.01,0.04-0.01,0.06C33.26,25.42,33.26,25.41,33.27,25.4"/>
	<path class="st1" d="M35.29,24.51C35.29,24.51,35.29,24.5,35.29,24.51C35.29,24.51,35.29,24.51,35.29,24.51L35.29,24.51"/>
	<path class="st1" d="M34.15,24.56c0.01-0.03,0.02-0.05,0.02-0.05c-0.04,0.02-0.07,0.04-0.1,0.06
		C34.1,24.56,34.12,24.56,34.15,24.56"/>
	<path class="st1" d="M24.3,43.19l-0.02-0.05c-0.05-0.13-0.08-0.65-0.16-0.54c-0.14,0.18-0.55,0.66,0.17,1.16l9.93,6.05
		c0,0,0.2,0.03,0.41,0c-1.66-1.12-6.67-4.31-10.29-6.58L24.3,43.19z"/>
	<path class="st1" d="M45.81,38.55c-0.03-0.09-0.07-0.15-0.12-0.17l-3.93-2.02l0.05-0.13c-0.16,0.18-0.31,0.34-0.45,0.49l4.04,2.21
		l-0.02,0.12c-0.3,2.14-2.47,8.69-3.83,11l0.53,0.05C44.15,45.18,46.25,39.83,45.81,38.55"/>
	<path class="st1" d="M58.14,41.67c0,0-3.72,7.48-7.4,10.13c0,0-7.71-1.64-8.18-1.67c1.92-4.54,4.1-10.25,3.61-11.7
		c-0.06-0.18-0.16-0.3-0.29-0.37l-2.13-1.09l2.78,0.88L46.5,37.6c0-0.07-0.12-1.64-0.36-2.82c0.7,0.25,1.79,0.65,1.98,0.89
		c0,0,0.94,0.42,1.3,0.49c0.36,0.07,1.82,0.41,1.82,0.41s0,0,0.01,0c0.03,0.01,0.12,0.04,0.27,0.1c0,0,0,0,0.01,0
		C52.42,37.05,55.29,38.4,58.14,41.67"/>
	<path class="st1" d="M51.51,36.68c-0.15-0.06-0.24-0.09-0.27-0.1C51.34,36.61,51.43,36.64,51.51,36.68"/>
	<path class="st1" d="M39.39,45c-0.07,0.29-0.05,1.17-0.03,1.56c0.03,0.73,0.13,3.33,0.13,3.33l1.76,0.13
		c1.23-2.03,3.4-8.51,3.79-10.9l-3.92-2.15c-1.29,1.26-2.05,1.48-2.05,1.48s0.48,1.89,0.61,2.53C39.89,42.18,39.63,44.03,39.39,45"
		/>
	<path class="st1" d="M37.24,49.77c0,0-3-4.91-4.59-7.49c-0.17-0.28-0.28-0.65-0.73-1.07c0,0-4.19-3.14-4.95-3.77
		c0,0-1.15,2.86-1.68,3.42c0,0,0,0.01-0.18,0.37C25.07,41.28,25,41.46,25,41.46c-0.21,0.58-0.42,1.29-0.42,1.51
		c6.91,4.35,9.61,6.14,10.57,6.8C35.4,49.78,36.55,49.8,37.24,49.77"/>
	<path class="st1" d="M37.72,28.7c-0.04-0.06-0.09-0.12-0.15-0.18C37.57,28.52,37.64,28.6,37.72,28.7"/>
	<path class="st1" d="M37.1,29.25c0,0,0.18-0.26-0.1-0.58C37.05,28.73,37.2,28.97,37.1,29.25"/>
	<path class="st1" d="M36.96,29.12c0,0-0.1-0.15-0.16-0.3c0,0-0.06,0.13,0,0.3c0,0-0.09,0.04-0.18-0.46c0,0-0.02,0.59,0.47,0.82
		C37.08,29.47,37,29.4,36.96,29.12"/>
	<path class="st1" d="M37.57,30.26c0,0-0.28,0.29,0.01,0.31c0,0,0.1,0,0.14,0.04c0,0-0.01-0.19,0.02-0.2c0,0,0.11-0.14-0.17-0.44
		C37.57,29.96,37.78,30.23,37.57,30.26"/>
	<path class="st1" d="M37.81,29c-0.03-0.08-0.15-0.24-0.25-0.37c0.18,0.27,0.25,0.55,0.25,0.55c-0.11-0.05-0.14,0-0.14,0
		c0.12,0.08,0.14,0.38,0.14,0.38c-0.04,0.14-0.39-0.32-0.39-0.32c0.12,0.41,0.49,0.44,0.49,0.44c0.05-0.03,0.01-0.63,0.01-0.63
		C37.89,28.88,37.81,29,37.81,29"/>
	<path class="st1" d="M43.14,31.51c-0.25-0.45-0.85-0.62-0.85-0.62c-0.31-0.1-0.38-0.58-0.38-0.58c0.24,0.06,0.82,0.46,0.82,0.46
		c-0.06-0.17-0.69-0.59-0.69-0.59c-0.1-0.7-0.36-0.79-0.36-0.79c-0.11-0.02-0.23-0.38-0.23-0.38c0.85,0.18,1.29-0.23,1.29-0.23
		c-0.59,0.41-1.05,0.16-1.05,0.16c0.13,0.07,0.44-0.07,0.44-0.07c-0.16,0.07-0.41-0.02-0.41-0.02c0.18,0.04,0.35-0.1,0.35-0.1
		c-0.33,0.14-0.61-0.28-0.61-0.28c0.57,0.2,0.9-0.12,0.9-0.12c-0.09,0.09-0.37,0.12-0.37,0.12c-0.01-0.42-0.9-0.76-0.9-0.76
		c-0.04,0.01-0.18-0.71-0.18-0.71c0.72-0.04,0.82,0.6,0.82,0.6c-0.13,0.06-0.65-0.44-0.65-0.44c0.1,0.22,0.7,0.69,0.7,0.69
		c0.08,0.36,0.31,0.31,0.31,0.31c-0.12,0-0.16-0.31-0.16-0.31c0.01-0.79-0.65-1.05-0.65-1.05c0.1,0.02,0.25,0.27,0.25,0.27
		C41.47,27,41,26.85,41,26.85c0.03-0.24-0.33-0.66-0.33-0.66c0.33,0.09,0.51,0.35,0.51,0.35c-0.06-0.19-0.2-0.26-0.2-0.26
		c-0.13-0.06-0.45-0.35-0.45-0.35c0-0.2-0.25-0.56-0.25-0.56c-0.47-0.56-0.73-0.25-0.73-0.25c-0.15,0.15-0.41,0-0.41,0
		c-0.52-0.57-1.23-0.61-1.23-0.61c0.16-0.18,0-0.18,0-0.18c-0.37,0.03-0.38-0.08-0.38-0.08c-0.3-0.11-0.67,0.05-0.67,0.05
		c-0.18,0.17-0.83,0.03-0.83,0.03c-0.2-0.23-0.34-0.1-0.42,0.02c0.02-0.01,0.03-0.02,0.05-0.04c0,0-0.04,0.07-0.1,0.14
		c-0.01,0.02-0.01,0.03-0.01,0.03c0.23-0.29,0.28-0.16,0.29-0.12c0,0,0-0.01,0-0.01l0,0.01c0,0.01,0,0.01,0,0.01c0,0,0,0,0,0
		l-0.01,0.1c-0.01,0.01-0.05,0.12-0.05,0.12c-0.06,0.07-0.19,0.1-0.19,0.1c-0.07,0.06,0.08,0.11,0.08,0.11
		c-0.06,0.59,0.27,0.43,0.27,0.43l0.16,0.39l0-0.08c0.08,0.11,0.01,0.43,0.01,0.43c-0.13,0.11-0.01,0.2-0.01,0.2
		c0.07,0.23,0.3,0.12,0.3,0.12c-0.05,0.02-0.04,0.11-0.04,0.11c0.18,0.33,0.09,0.47,0.09,0.47c-0.03,0.14-0.11,0.1-0.11,0.1
		c0.17-0.27-0.04-0.44-0.04-0.44c-0.28-0.1-0.27-0.49-0.27-0.49c0.05-0.26-0.08-0.55-0.08-0.55c0.07,0.26,0.01,0.28,0.01,0.28
		c0-0.03-0.27-0.52-0.27-0.52c0.11-0.08-0.12-0.18-0.12-0.18c-0.05,0.03-0.08,0.05-0.1,0.06c0.01,0.03,0,0.07-0.09,0.15
		c0,0-0.26-0.04-0.16,0.26l0.11,0.39c0,0-0.25-0.01-0.2-0.63c0,0-0.15,0.37,0.14,0.68c0,0,0.11,0.01,0.15,0.08l-0.05,0.01
		c0,0,0.07,0.65-0.18,0.39c0,0,0.16,0.11,0.15-0.1c0,0,0.02-0.11-0.1-0.22c0,0-0.22,0.03-0.22-0.92c0,0-0.23,0.27-0.11,0.67l0,0.08
		c0,0,0.16,0.31,0.12,0.48l-0.13-0.23c0,0-0.07-0.32-0.07-0.51c0,0-0.09,0.14,0,0.28c0,0-0.09,0-0.06,0.09c0,0-0.01,0.25-0.06,0.29
		c0,0-0.13-0.01-0.06-0.21c0,0-0.13,0.29-0.18,0.44c0,0-0.1,0.12,0.02,0.62l-0.15-0.1c0,0-0.21-0.35,0-0.54c0,0,0.21-0.32,0.05-0.66
		c0,0-0.02,0.47-0.12,0.64c0,0-0.18,0.23,0.03,0.52c0,0-0.23-0.2-0.17-0.51c0,0,0.23-0.76,0.19-1.05c0,0,0.17,0.11,0.23,0
		c0,0,0-0.01,0-0.01c-0.02-0.01-0.03-0.02-0.04-0.03c-0.03,0.04-0.08,0.06-0.13,0.02c0,0-0.16-0.07-0.16,0.13
		c0,0,0.03,0.51-0.18,0.84c0,0-0.16,0.2,0,0.46c0,0-0.17-0.01-0.15,0.07c0,0-0.11-0.1-0.01-0.36c0,0-0.22,0.43-0.27,0.45l0.23-0.52
		l-0.3,0.56c0,0-0.08-0.13-0.04-0.23c0,0,0.18-0.66,0.54-0.87c-0.16,0.08-0.53,0.28-0.58,0.47c0,0,0.07-0.29,0.3-0.33
		c0,0-0.21,0-0.27,0.07c0,0,0.25-0.24,0.33-0.41c0,0,0.3,0.2,0.29-0.32c0,0-0.06,0.3-0.21,0.18l-0.01-0.16l-0.27,0.31
		c0,0,0.11-0.31,0.06-0.41c0,0-0.1,0.46-0.3,0.56c0,0,0.09-0.28,0.14-0.41c-0.1,0.2-0.38,0.79-0.43,0.95
		c0.02-0.14,0.11-0.66,0.16-0.84l-0.13,0.33c0,0-0.02-0.12,0.02-0.3c-0.09,0.18-0.2,0.31-0.2,0.31c-0.38,0.11-0.48,0.57-0.48,0.57
		c0.02-0.32,0.21-0.61,0.21-0.61c-0.24-0.01-0.57,0.64-0.57,0.64c-0.01,0.2-0.32,0.54-0.32,0.54c-0.24,0.36-0.3,0.2-0.3,0.2
		c-0.1,0.02-0.24,0.16-0.24,0.16c-0.11-0.13-0.32-0.09-0.32-0.09c0.18,0.3,0,0.27,0,0.27c-0.26-0.02-0.39,0.13-0.39,0.13
		c-0.71,0.31-0.67-0.08-0.67-0.08c0.04-0.12,0.1-0.05,0.1-0.05c-0.06-0.09,0-0.07,0-0.07c0.07,0.12,0.18,0.13,0.18,0.13
		c0.13-0.13-0.06-0.14-0.06-0.14c0.12-0.31,0.49-0.29,0.49-0.29c-0.27-0.13-0.49,0.15-0.49,0.15c-0.12,0.16-0.1,0.06-0.1,0.06
		c0-0.11,0.33-0.46,0.33-0.46l-0.28,0.25l0.09-0.18c-0.1,0.22-0.42,0.28-0.42,0.28l0.11-0.21c-0.07,0.15-0.39,0.27-0.39,0.27
		c-0.36,0.01-0.57,0.38-0.57,0.38c0.22-0.39,0.77-0.31,0.77-0.31l0.29-0.17c0.01,0.2-0.37,0.42-0.37,0.42
		c-0.41-0.01-1.01,0.61-1.01,0.61c-0.51,0.66-1.04,0-1.04,0c0.47,0.07,0.46,0,0.46,0c1.22-0.46,0.95-1.12,0.95-1.12
		c-0.03,0.72-0.44,0.76-0.44,0.76l0.02-0.12c0.19-0.34,0.05-0.64,0.05-0.64c0.15,0.71-0.53,0.76-0.53,0.76
		c0.22,0.04,0.38-0.08,0.38-0.08c0.05,0.23-0.36,0.24-0.36,0.24c-0.31,0.29-0.46,0.06-0.46,0.06l0.22-0.2
		c0.41-0.26,0.43-0.47,0.43-0.47c-0.08-0.07-0.03-0.28,0-0.39c-0.16,0.48-0.48,0.56-0.6,0.57c0.29-0.01,0.41-0.15,0.41-0.15
		c0.04,0.24-0.46,0.41-0.46,0.41l0.12,0.04c-0.36,0.11-0.65,0.49-0.65,0.49c-0.11,0.23-0.45,0.4-0.45,0.4
		c0.14-0.06,0.11-0.26,0.11-0.26c-0.19,0.1-0.3,0.09-0.3,0.09c0.62-0.41-0.28-0.29-0.28-0.29c0.29-0.14,0.53-0.06,0.53-0.06
		c-0.07-0.05-0.28-0.11-0.28-0.11c0.31,0.04,0.62-0.13,0.62-0.13c-0.49,0.21-0.61-0.01-0.61-0.01C26.36,27.99,26.59,28,26.59,28
		c-0.13-0.13-0.36-0.31-0.36-0.31c0.56,0.45,1.02-0.05,1.02-0.05c-0.33,0.17-0.61,0.15-0.61,0.15v-0.02
		c0.38-0.14,0.39-0.42,0.39-0.42c-0.07,0.14-0.42,0.37-0.42,0.37c-0.13,0-0.08-0.11-0.08-0.11c0.38-0.24,0.26-0.63,0.26-0.63
		c-0.03,0.28-0.13,0.27-0.13,0.27l-0.09-0.21c-0.15,0.07-0.18,0.19-0.18,0.19c-0.1-0.09-0.03-0.22-0.03-0.22
		c0.01-0.01,0.01-0.01,0.02-0.02c0.2-0.27-0.07-0.47-0.07-0.47c0.02-0.11-0.05-0.19-0.05-0.19c-0.02-0.11,0.35-0.63,0.35-0.63
		c-0.15,0.02-0.48,0.64-0.48,0.64c-0.03-0.44,0.3-0.68,0.3-0.68c-0.26,0.09-0.41,0.51-0.41,0.51c-0.03-0.09,0.05-0.33,0.05-0.33
		C26,25.86,25.9,26.3,25.9,26.3l-0.11,0.16c-0.07,0.24-0.3,0.13-0.3,0.13c0.55-0.31,0.27-0.74,0.27-0.74
		c0.11,0.4-0.04,0.36-0.04,0.36c0.03-0.19-0.09-0.27-0.09-0.27c-0.01,0.32-0.4,0.35-0.4,0.35c0.3-0.16,0.16-0.5,0.16-0.5
		c0.04,0.22-0.13,0.4-0.25,0.5c0.09-0.15,0.07-0.45,0.07-0.45c-0.02-0.83,0.57-0.88,0.57-0.88c-0.05,0.04-0.05,0.33-0.05,0.33
		c0.07-0.36,0.22-0.33,0.22-0.33c0.22-0.04,0.32-0.32,0.32-0.32c-0.16,0.22-0.34,0.18-0.34,0.18c-1.04,0.25-0.8,1.03-0.8,1.03
		c-0.16,0.69-0.55,0.53-0.55,0.53c0.66-0.33,0.3-0.76,0.3-0.76c-0.36,0.1-0.24-0.31-0.24-0.31c0.08-0.29,0.39-0.31,0.39-0.31
		c0.22-0.18,0.08-0.23,0.08-0.23c-0.16-0.38,0.23-1,0.23-1c-0.25,0.12-0.37,0.79-0.37,0.79c0.03,0.03,0.04,0.18,0.04,0.18
		c0,0.2-0.11,0.03-0.11,0.03c-0.11-0.03-0.08-0.27-0.08-0.27c0.02-0.35-0.21-0.46-0.21-0.46c-0.14-0.11-0.11-0.33-0.11-0.33
		c0.09,0.01,0.35-0.23,0.35-0.23c-0.2,0.19-0.34,0.14-0.34,0.14c-0.01-0.13,0.34-0.44,0.34-0.44c-0.13-0.01-0.35,0.25-0.35,0.25
		c-0.04-0.27,0.23-0.47,0.23-0.47c-0.29,0.03-0.38,0.61-0.38,0.61c-0.05-0.52,0.31-0.69,0.31-0.69c-0.33,0.08-0.38,0.48-0.38,0.48
		c0.01,0.13-0.04,0.16-0.04,0.16c-0.22-0.14,0.04-0.43,0.04-0.43c-0.24,0.09-0.23,0.37-0.23,0.37c-0.08-0.35,0.1-0.55,0.19-0.63
		c-0.43,0.34-0.3,0.63-0.3,0.63c0.01,0.18-0.09,0.26-0.09,0.26c-0.1,0-0.03-0.31-0.03-0.31C23.9,23.23,23.84,23,23.84,23
		c0.35-0.24,0.6-0.68,0.6-0.68c-0.25,0.39-0.54,0.46-0.54,0.46c0-0.05,0.06-0.11,0.06-0.11c0.37-0.25,0.41-0.62,0.41-0.62
		c-0.23,0.49-0.52,0.61-0.52,0.61c-0.01-0.17,0.15-0.22,0.15-0.22c-0.07,0-0.17,0.03-0.17,0.03c0.31-0.24,0.39-0.89,0.39-0.89
		c-0.09,0.61-0.45,0.8-0.45,0.8l-0.1,0.1c-0.06-0.04,0-0.13,0-0.13c0.28-0.2,0.32-0.62,0.32-0.62c-0.2,0.59-0.45,0.65-0.45,0.65
		c-0.03,0.01-0.11,0.12-0.11,0.12c-0.21,0.02-0.13-0.52-0.13-0.52c0.12,0.08,0.17-0.17,0.17-0.17c0.05-0.04,0.14-0.23,0.14-0.23
		c0.07-0.29,0.31-0.27,0.31-0.27c-0.04,0-0.17,0.22-0.17,0.22c0.05-0.06,0.29-0.21,0.29-0.21c0.43-0.32,0.21-0.74,0.21-0.74
		c0.15,0.36-0.17,0.62-0.17,0.62c-0.15,0.15-0.15-0.04-0.15-0.04c0.2-0.18,0.06-0.37,0.06-0.37c0.12,0.3-0.21,0.35-0.21,0.35
		c-0.08-0.03-0.32,0.08-0.32,0.08c-0.07,0.03-0.04-0.09-0.04-0.09c-0.05-0.4,0.14-0.19,0.14-0.19c-0.03-0.29,0.34-0.66,0.34-0.66
		c-0.04,0-0.46,0.34-0.46,0.34c0-0.07,0.23-0.29,0.23-0.29c-0.05,0.02-0.25,0.13-0.25,0.13c-0.28,0.09-0.35,0.43-0.35,0.43
		c0.05,0.01,0.09,0.06,0.09,0.06c-0.31,0.05-0.14-0.32-0.14-0.32c0.1-0.36,0.54-0.34,0.54-0.34c-0.28-0.04-0.14-0.2-0.14-0.2
		c0.48-0.19,0.65-0.69,0.65-0.69l-1.13,0.88c0.05-0.03,0.29-0.07,0.29-0.07c-0.04-0.01-0.31,0.28-0.31,0.28
		c-0.1,0.06-0.47,0.55-0.47,0.55c-0.02,0.05-0.2,0.23-0.2,0.23c-0.32,0.45,0.16,0.75,0.16,0.75c0.03,0.48,0.27,0.66,0.27,0.66
		c0.28,0.07,0.33,0.42,0.33,0.42c0.15,0.04,0.19-0.06,0.19-0.06c0.02,0.23-0.09,0.43-0.09,0.43c0.1-0.04,0.1-0.01,0.1-0.01
		c-0.09,0.26-0.01,0.32-0.01,0.32c0.01-0.11,0.13-0.21,0.13-0.21c0.22,0.06,0.04,0.31,0.04,0.31c0.17,0.32,0.1,0.46,0.1,0.46h0.06
		c0.02,0.16-0.12,0.39-0.12,0.39c-0.24,0.2-0.21,0.64-0.21,0.64c0.22-0.74,0.57-0.52,0.57-0.52c-0.63,0.37-0.36,0.45-0.36,0.45
		c0.04-0.27,0.5-0.34,0.5-0.34c-0.52,0.35-0.51,0.59-0.51,0.59c-0.08,0.09-0.25,0.06-0.25,0.06c0.13,0.11,0.23,0,0.23,0
		c-0.06,0.2-0.27,0.15-0.27,0.15c0.18,0.08,0.3-0.05,0.3-0.05c0.06,0.18-0.21,0.22-0.36,0.23c0.13,0.01,0.2,0.08,0.2,0.08
		c-0.27,0.26-0.43,0.17-0.43,0.17c0.11,0.13,0.49,0.18,0.49,0.18c-0.03,0.14-0.37,0.12-0.37,0.12c0.38,0.15,0.52-0.13,0.52-0.13
		c0.08,0.32-0.14,0.44-0.14,0.44c0.09,0.02,0.14-0.02,0.14-0.02c0.05,0.18-0.16,0.14-0.16,0.14c0.14,0.19,0.27,0.09,0.27,0.09
		c0.07,0.07-0.06,0.1-0.06,0.1c0.32,0.29,0.83-0.11,0.83-0.11c0.17,0.11-0.07,0.34-0.07,0.34c-0.65,0.26-0.9,0.29-0.9,0.29
		c-0.54,0.12-0.5,0.54-0.5,0.54c-0.05,0.63-0.46,0.93-0.46,0.93c0.35,0,0.54-0.66,0.54-0.66c0.07,0.36-0.14,0.66-0.14,0.66
		c-0.14,0.22,0,0.88,0,0.88c0.09-0.53,0.54-0.49,0.54-0.49c0.37,0.01,0.54-0.37,0.54-0.37c0.06-0.1,0.16,0,0.16,0
		c-0.26,0.18,0.13,0.2-0.59,0.44c-0.71,0.24-0.41,0.82-0.41,0.82l0.07,0.06c-0.35-0.66,0.26-0.78,0.26-0.78
		c-0.53,0.17-0.23,0.8-0.23,0.8l0.1,0.06c-0.39-0.71,0.27-0.78,0.27-0.78c-0.53,0.28-0.25,0.79-0.25,0.79
		c0.19,0.08,0.27-0.04,0.27-0.04c0.25-0.55,0.59-0.5,0.59-0.5c-0.17,0.02-0.58,0.53-0.58,0.53l0.06,0.23
		c0.39-0.38,0.4-0.22,0.4-0.22c-0.16,0.2-0.38,0.3-0.38,0.3l0.01,0.07c0.14-0.11,0.2-0.07,0.2-0.07c-0.02,0.15-0.18,0.23-0.18,0.23
		l0,0.11c-0.02,0.04-0.04,0.15-0.04,0.15c0.34-0.35,0.49-0.09,0.49-0.09c-0.44-0.15-0.45,0.42-0.45,0.42l0.06,0.16
		c0.17,0.13,0.71-0.11,0.71-0.11c-0.24,0.45-0.64,0.31-0.64,0.31l0.1,0.45c0.25-0.04,0.34,0.1,0.34,0.1c-0.22,0-0.22,0.36-0.22,0.36
		c0.14-0.02,0.43-0.51,0.43-0.51c-0.01,0.03-0.34,0.79-0.34,0.79c0,0.07,0.22,0.53,0.22,0.53c-0.03-0.1,0.08-0.24,0.08-0.24
		c0.34-0.15,0.14-0.52,0.14-0.52c0.23-0.73,0.83-0.36,0.83-0.36c-0.76,0.05-0.66,0.47-0.66,0.47c0.14,0.52-0.1,0.67-0.1,0.67
		c0.12,0.11,0.06,0.27,0.06,0.27c0.12,0.02,0.2-0.15,0.2-0.15c0.06,0.06,0.07,0.32,0.07,0.32c0.18-0.58,0.61-0.42,0.61-0.42
		c-0.28,0.09-0.42,0.75-0.42,0.75l0.08,0.08c0.17-0.65,0.53-0.44,0.53-0.44c-0.33-0.08-0.36,0.59-0.36,0.59l0.34,0.27
		c0.1-0.12,0.44-0.19,0.44-0.19c0,0.15,0.07,0.53,0.07,0.53l0.14,0.07c-0.08-0.47,0.31-0.79,0.31-0.79
		c-0.29,0.34-0.22,0.83-0.22,0.83l0.16,0.06c-0.11-0.31,0.05-0.6,0.05-0.6c-0.08,0.18-0.02,0.61-0.02,0.61
		c0.03,0.02,0.11,0.03,0.15,0.03c-0.24,0.01-0.4,0.55-0.4,0.55c0.29-0.12,0.41-0.04,0.41-0.04c-0.44,0.53,0.15,1.29,0.15,1.29
		c0.06-0.43,0.52-0.63,0.52-0.63c-0.15,0.35,0.07,0.73,0.07,0.73c0.08-0.52,0.56-0.72,0.56-0.72c-0.06,0.17-0.02,0.5-0.02,0.5
		c-0.01-0.24,0.47-0.37,0.47-0.37c-0.17,0.05,0,0.59,0,0.59c-0.04,0.12-0.54,0.35-0.54,0.35c0.98,0.1,1.1-0.3,1.1-0.3
		c0.05,0.38-0.28,0.84-0.28,0.84c-0.27,0.32,0,0.6,0,0.6c0.1-0.53,0.68-0.41,0.68-0.41c-0.33,0.34,0.11,0.96,0.11,0.96
		c0.08-0.78,0.42-0.79,0.42-0.79c0.37,0.33,0.17,0.61,0.17,0.61c0.1-0.08,0.32-0.55,0.32-0.55c-0.02,0.51,0.22,0.97,0.22,0.97
		c-0.01-0.33,0.29-0.82,0.29-0.82c0.16,0.34,0.75,0.4,0.75,0.4c-0.44,0.33-0.24,0.54-0.24,0.54c0.03-0.13,0.23-0.34,0.23-0.34
		c0.1,0.04,0.85-0.63,0.85-0.63c0.04,0.37,0.25,0.57,0.25,0.57c0.02-0.06,0.11-0.08,0.11-0.08c-0.24,0.58,0.23,0.77,0.23,0.77
		c-0.1-0.31,0.41-0.47,0.41-0.47c0.08,0.32,0.52,0.19,0.52,0.19c0.02,0.55,0.42,0.28,0.42,0.28c-0.41-0.02-0.27-0.47-0.27-0.47
		c0.21,0.06,0.54-0.55,0.54-0.55c-0.14,0.42,0.22,0.61,0.22,0.61c-0.08-0.07,0.03-0.31,0.03-0.31c-0.01,0.33,0.27,0.31,0.27,0.31
		c-0.44-0.19,0.21-0.71,0.21-0.71c0.02,0.28,0.17,0.19,0.17,0.19l-0.01-0.09c0.01-0.09,0.16-0.11,0.16-0.11
		c0.02,0.11,0.13,0.1,0.13,0.1c0.07-0.2,0.1-0.6,0.1-0.6c0.58-0.13,1.29,0.7,1.29,0.7c0.07-0.33-0.05-1.51-0.05-1.51
		c0.14,0.93,0.99,0.81,0.99,0.81c-0.26-0.4,0.09-1.28,0.09-1.28c-0.05,0.32,0.19,0.47,0.19,0.47c-0.33-0.44,0.09-1.12,0.09-1.12
		c0.22,0.15,0.21,0.44,0.21,0.44c0.07-0.08,0.2-0.09,0.2-0.09c-0.01,0.25-0.17,0.37-0.17,0.37c0.04,0.04,0.42-0.1,0.42-0.1
		c0.02,0.12,0.11,0.1,0.11,0.1c0-0.42,0.41-0.38,0.41-0.38c0.11,0.37,0,0.54,0,0.54c0.13-0.07,0.31-0.46,0.31-0.46
		c0.1,0.02,0.19-0.76,0.19-0.76c0.24,0.11,0.34,0.51,0.34,0.51c0.13-0.38-0.37-1.21-0.37-1.21c0.42,0.09,0.5,0.74,0.5,0.74
		c0.12-0.42-0.02-0.79-0.02-0.79c0.17,0.12,0.28,0.28,0.28,0.28c0.04-0.21,0.17-0.3,0.17-0.3c0.15,0.16,0.11,0.43,0.11,0.43
		c0.42-0.2,0.44-0.84,0.44-0.84c-0.03-0.8,0.59-1.18,0.59-1.18c0.41,0.02,0.29-0.24,0.29-0.24c-0.06,0.15-0.28,0.15-0.28,0.15
		c0.15-0.24,0.08-1.08,0.08-1.08c-0.12-0.28,0.2-0.18,0.2-0.18c0.03-0.94-0.41-1.13-0.41-1.13c0.73-0.32,0.7,0.63,0.7,0.63
		c0.06-0.81-0.49-0.83-0.49-0.83C42.85,31.08,43.11,31.46,43.14,31.51 M32.96,27.14c0,0.27,0.09,0.36,0.09,0.36
		c0.09-0.08,0.03,0.25,0.03,0.25c0.03-0.17-0.12-0.17-0.12-0.17c-0.03,0.2-0.28,0.27-0.28,0.27C32.97,27.6,32.96,27.14,32.96,27.14
		 M32.64,28.82l0.1-0.17c0,0,0.99-0.32,0.76-0.95h0.01l0.09,0.12c0,0,0.13,0.42-0.5,0.9C33.11,28.73,32.58,29.08,32.64,28.82
		 M33.09,29.21L33,29.29c0.08-0.18,0.23-0.28,0.29-0.32C33.22,29.02,33.09,29.21,33.09,29.21 M33.27,28.86c0,0-0.17,0.01-0.29,0.43
		c0,0-0.12,0.1-0.18,0.05c0,0-0.16-0.04-0.06-0.34c0,0,1.04-0.44,0.9-1.12l0.06,0.08c0,0,0.04,0.3-0.07,0.48l-0.23,0.32L33.27,28.86
		z M33.75,28.92c0,0,0.06,0.42-0.18,0.52C33.57,29.43,33.76,29.13,33.75,28.92 M33.68,29.47c0,0-0.06,0.01-0.08-0.01
		c0,0,0.39-0.14,0.11-0.69c0,0,0.1-0.15,0.1,0C33.81,28.76,33.89,29.38,33.68,29.47 M34,27.58l0.13,0.67
		c-0.05-0.26,0.02-0.43,0.1-0.53c0.01-0.06,0.03-0.11,0.06-0.13c0,0,0,0.02,0,0.06c0.05-0.04,0.09-0.06,0.09-0.06
		c-0.03,0.03-0.06,0.07-0.09,0.1c0,0.07,0.02,0.17,0.04,0.27c0.05-0.13,0.12-0.18,0.12-0.18c-0.05,0.03-0.01,0.34-0.01,0.34
		c-0.01,0.02-0.02,0.04-0.03,0.06c0.01,0.05,0.03,0.1,0.04,0.14c0,0,0.01,0.03,0.02,0.05c0.06,0.04,0.1,0.09,0.1,0.09L34.5,28.4
		c0,0,0.01,0.01,0.01,0.01c0,0-0.12,0.05-0.21-0.13c-0.02,0.01-0.03,0.01-0.03,0.01c0-0.02,0.01-0.03,0.01-0.05
		c-0.01-0.02-0.02-0.05-0.03-0.08c0,0-0.03-0.17-0.03-0.32c-0.08,0.23,0.03,0.42,0.03,0.42c0.01,0.01-0.15,0.16-0.15,0.16
		C33.94,28.15,34,27.58,34,27.58 M34.65,29.2c-0.24-0.03-0.36,0.04-0.42,0.1l-0.1,0.17c0,0,0-0.11,0-0.25v0
		c0-0.22-0.02-0.51-0.08-0.6c0,0,0.15,0.02,0.17,0.22c0,0-0.01-0.33,0.02-0.34l0.03,0.41c0.02-0.03,0.02-0.04,0.02-0.04
		c0.03,0.29,0.16-0.06,0.16-0.06c0.31,0.04,0.08,0.37,0.08,0.37c0.18-0.05,0.29-0.3,0.29-0.3C35,29.1,34.65,29.2,34.65,29.2
		 M36.87,24.95c0,0,0.11-0.1,0.31-0.04c0,0,0.19,0.08,0.22,0.08c0,0-0.03-0.05-0.17-0.08c0,0-0.14-0.01-0.2-0.17
		c0,0,0.1-0.1,0.23-0.02l-0.09-0.1c0,0,0.24,0.1,0.35,0.26c0,0,0.19,0.07,0.23,0.03c0,0-0.45-0.19-0.39-0.37
		c0,0,0.23,0.01,0.47,0.34c0,0,0.06-0.03,0.13-0.02c0,0-0.16-0.09-0.19-0.21c0,0,0.34-0.1,0.7,0.09c0,0,0.1,0.01,0.18,0.07
		c0,0,0,0.31,0.43,0.49c0,0-0.31-0.15-0.33-0.42c0,0,0.16,0.12,0.22,0.2c0,0,0.46,0.27,0.54,0.31l-0.11-0.11
		c0,0,0.06,0.06,0.27-0.04c0,0-0.03,0.11-0.03,0.19c0,0,0,0.13,0.24,0.27c0,0,0.38,0,0.5,0.34c0,0,0.24,0.15,0.38,0.36
		c-0.09-0.12-0.24-0.25-0.5-0.38c0.08,0.05,0.35,0.24,0.51,0.87c0,0-0.03,0.04-0.11-0.03c0,0-0.11-0.66-0.75-0.79
		c0,0-0.04-0.16-0.03-0.2c0,0,0.15-0.01,0.26,0.04c0,0,0.01-0.09-0.28-0.12c0,0-0.09-0.12-0.66-0.33c0,0,0.54,0.22,0.66,0.59
		c0,0,0.24,0.54,0.32,0.67c-0.08-0.11-0.43-0.59-0.88-0.85c0,0,0.78,0.57,0.84,1.16c0,0-0.61-1.14-1.4-1.43c0,0-0.27-0.39-0.34-0.5
		c0.04,0.07,0.22,0.36,0.17,0.55c0,0-0.07,0.19,0,0.34c0,0-0.09,0.04-0.1,0.11c0,0-0.18,0.11-0.08-0.32c0,0,0.22-0.49-0.52-0.82
		c0.13,0.06,0.57,0.31,0.47,0.66c0,0-0.38-0.39-0.62-0.43c0,0,0.43,0.22,0.57,0.53c0,0-0.31-0.29-0.45-0.35c0,0,0.44,0.42,0.45,0.47
		c0,0-0.11,0.17,0,0.31c0,0,0.12,0.2,0.1,0.29c0,0-0.07,0.03-0.28-0.35c0,0,0.01-0.44-0.15-0.49c0,0-0.23-0.08-0.43-0.35
		c0,0,0.02,0.14,0.33,0.38c0,0,0.2,0.18,0.14,0.47c0,0,0.01,0.27,0.05,0.31c0,0,0.2,0.51,0.41,0.62c0,0-0.3-0.04-0.49-0.63
		c0,0-0.16-0.48-0.28-0.58c0,0,0.15,0.45,0.15,0.49c0,0-0.03,0.3-0.16,0.07c0,0,0.12-0.36-0.03-0.57c0,0-0.1-0.19-0.11-0.21
		c0,0-0.15-0.34-0.5-0.43C37.02,25.17,36.78,25.05,36.87,24.95 M38.88,29.31c0,0,0,0.25-0.04,0.39
		C38.83,29.7,38.67,29.61,38.88,29.31 M38.6,29.5c0,0-0.16-0.17,0.04-0.48C38.64,29.03,38.54,29.32,38.6,29.5 M38.37,28.2
		c-0.05-0.06-0.23-0.56-0.23-0.56C38.36,28.07,38.37,28.2,38.37,28.2 M36.46,26.18c0,0-0.2-0.09-0.23-0.43c0,0-0.05-0.18-0.1-0.27
		c0,0,0.04-0.12,0.07-0.13c0,0-0.1-0.17-0.1-0.39l0.02,0.02c0,0,0.16,0.52,0.44,0.61c0,0,0.31,0.24,0.2,0.6c0,0-0.18,0.06-0.41-0.48
		c0,0,0.02,0.15,0,0.16l0.21,0.22l0.29,0.46l0.03,0c0,0,0.07,0.2,0.13,0.2c0.03,0-0.01-0.32-0.01-0.34c0-0.01-0.16-0.37-0.16-0.37
		c0-0.14-0.25-0.49-0.25-0.49c-0.23-0.25-0.34-0.63-0.34-0.63c0.08-0.07,0.11,0.03,0.11,0.03c0.21-0.05,0.17,0.19,0.17,0.19
		c0.02-0.08-0.01-0.2-0.01-0.2l0.05,0.03c-0.05,0.24,0.05,0.25,0.05,0.25c-0.11-0.19,0.08-0.27,0.08-0.27
		c0.15-0.03,0.14,0.17,0.14,0.17c0.05,0.15,0.28,0.22,0.28,0.22c0.22,0.15,0.25,0.3,0.25,0.3c0.07,0.14-0.01,0.49-0.01,0.49
		c-0.02-0.14-0.22-0.43-0.22-0.43c0.25,0.52,0.08,0.97,0.08,0.97c-0.09-0.1-0.1-0.38-0.1-0.38c0.01,0.14,0,0.41,0,0.41
		C37.07,26.69,37,26.78,37,26.78c-0.08-0.03-0.15-0.22-0.15-0.22c-0.1,0.35,0.22,0.54,0.22,0.54c-0.37-0.15-0.54-0.57-0.54-0.57
		S36.6,26.41,36.46,26.18 M36.14,26.62c0,0,0.12,0.24-0.05,0.37C36.08,26.99,35.99,26.71,36.14,26.62 M35.65,26.62
		c0,0,0.02,0.44-0.09,0.49C35.56,27.11,35.54,26.96,35.65,26.62 M35.01,28.04L35,28.03c0,0,0.09-0.3,0.18-0.39L35.01,28.04z
		 M35.16,30.77c0,0,0-0.02,0.02-0.06C35.17,30.73,35.16,30.75,35.16,30.77 M35.91,30.86c0,0-0.37-0.73-0.39,0.4
		c0,0-0.03-0.16-0.15-0.28c0,0,0-0.05,0.02-0.21c0,0,0.11-0.22,0.18-0.29c-0.08,0.03-0.22,0.09-0.11-0.02c0,0-0.22,0.07-0.29,0.23
		c0.06-0.17,0.23-0.57,0.62-0.52c0,0,0.2-0.2,0.23-0.32c0,0-0.42,0.32-0.63,0.32c0,0,0.3-0.13,0.4-0.57c0,0-0.39,0.61-0.62,0.57
		c0,0-0.11,0.18-0.05,0.33c0,0-0.24-0.35,0.49-0.75c0,0,0.33-0.3,0-0.67l0-0.06c0,0,0.13-0.09,0-0.31c0,0-0.45-0.36-0.14-0.72
		c0,0-0.07,0.66,0.45,0.72c0,0-0.44-0.23-0.31-0.41c0,0,0.36,0.25,0.41,0.58c0,0-0.06,0.64,0,0.67c0,0,0.1,0.02,0.21-0.34
		c0,0,0.04,0.86,0.01,0.93c0,0-0.08,0.16-0.2,0.25c0.1-0.04,0.21-0.1,0.27-0.17C36.32,30.22,35.87,30.71,35.91,30.86 M38.34,30.63
		c0.02-0.14-0.13-0.33-0.13-0.33C38.59,30.54,38.34,30.63,38.34,30.63 M38.67,30.04c0,0-0.22,0.06-0.43-0.17
		c0,0,0.08,0.41,0.49,0.32c0,0,0.29,0.34,0.17,0.66c0,0-0.01-0.57-0.69-0.69c0,0-0.35-0.22-0.63-0.5c0,0,0.49,0.61,0.57,0.62
		c0,0,0.01,0.42,0.1,0.51c0,0-0.13-0.08-0.2-0.16c0,0,0,0.13,0.06,0.3c0,0-0.16-0.03-0.26-0.32c0,0-0.07,0.33-0.01,0.38
		c0,0-0.3-0.01-0.67-0.36c0,0-0.23-0.05-0.22,0.1c0,0-0.11-0.28-0.01-0.31c0.28-0.08,0.21-0.45,0.21-0.45
		c0.25,0.1,0.36,0.3,0.36,0.3c-0.05-0.31-0.42-0.51-0.42-0.51c0.06,0.59-0.21,0.65-0.21,0.65c-0.1,0.13-0.06-0.14-0.06-0.14
		c0.17-0.24-0.02-0.69-0.02-0.69c-0.21,0.15-0.19,0.39-0.19,0.39c-0.29-0.23-0.14-0.7-0.14-0.7c0.04-0.1,0-0.36,0-0.36
		c-0.06-0.23-0.51-0.71-0.51-0.71s-0.01-0.24,0.1,0c0,0-0.02-0.18,0.11-0.21c0,0,0.14,0.12,0.18,0.3c-0.01-0.12-0.04-0.34-0.08-0.39
		c0,0,0.24,0.22,0.3,0.38c0,0,0.04-0.22,0-0.28c0,0,0.05-0.01,0.17,0.15h0.16c0,0,0.07,0.32,0.22,0.33c0,0-0.23-0.38-0.03-0.43
		c0,0,0.37,0.36,0.43,0.55c0,0-0.15-0.39-0.33-0.5c0,0,0.09,0.03,0.11,0.01c0,0,0.46-0.4,0.97,0.36c0,0-0.29-0.18-0.46-0.34
		c0,0-0.31-0.04-0.36,0.13c0,0,0.24-0.11,0.36,0.05c0,0,0.17,0.28,0.35,0.34c0,0-0.07,0.79,0.01,0.92c0,0,0.02,0.29,0.23,0.33
		c0,0-0.37-0.55-0.01-0.27c0,0-0.24-0.19-0.12-0.39c0,0,0.18,0.2,0.35,0.23c0,0,0.28,0.33,0.36,0.33c0,0-0.17,0.1-0.49-0.25
		c0,0,0.18,0.42,0.64,0.34c0,0,0.52,0.11,0.49,0.36c0,0-0.35-0.3-0.83-0.3c0,0-0.37-0.13-0.42-0.19
		C38.33,29.77,38.57,30.03,38.67,30.04 M39.62,30.52c0,0-0.31-0.23-0.29-0.39c0,0,0.16,0.21,0.39,0.28c0,0,0.56,0.04,0.6,0.02
		C40.31,30.43,39.92,30.64,39.62,30.52 M39.74,27.44c0,0,0.57,0.21,0.66,0.76C40.4,28.19,40.1,27.57,39.74,27.44 M40.88,28.02
		c0-0.1-0.7-0.87-0.7-0.87C40.94,27.63,40.88,28.02,40.88,28.02 M41.8,30.33c-0.59-0.1-0.85-0.76-0.85-0.76
		c0.26,0.43,0.49,0.46,0.49,0.46C41.84,30.07,41.8,30.33,41.8,30.33"/>
	<path class="st1" d="M6.3,43.17c0,0,11.42-8.87,13.06-9.18c0,0-1.34,3.97-0.58,6.82c0,0,4.4-0.39,5.7,0.77c0,0-1.16,1.05-0.75,2.36
		l8.2,5.71c0,0-11.93,0.73-18.94,2.36C12.98,52,7.75,47.38,6.3,43.17"/>
	<path class="st1" d="M22.63,30.02c0,0,0.79,5.44,4.11,7.29l-1.77,3.49c0,0-2.45-1.73-5.6-0.86c0,0,0.35-4.16,1.52-7.06L22.63,30.02
		z"/>
	<path class="st1" d="M19.59,33.9l0.67-0.47c0,0-1.32,3.87-1.15,6.84c0,0,2.68-1.03,5.72,0.8l-0.19,0.29c0,0-2-1.5-5.74-0.71
		C18.9,40.65,18.65,36.84,19.59,33.9"/>
	<path class="st1" d="M41.89,35.95c0,0,1.2-1.28,1.33-3.46l2.45,2.06l0.38,2.71L41.89,35.95z"/>
	<polygon class="st0" points="11.39,57.53 8.48,53 9.97,51.8 1.52,53.69 7.21,55.61 5.38,61.92 	"/>
	<path class="st1" d="M5.13,62.28l1.9-6.57L1,53.66l9.53-2.13l-1.86,1.49l2.91,4.53L5.13,62.28z M2.04,53.72l5.34,1.8l-1.75,6.04
		l5.57-4.07l-2.9-4.52l1.12-0.9L2.04,53.72z"/>
	<polygon class="st1" points="8.48,53 10.86,52.41 10.25,51.56 	"/>
	<polygon class="st0" points="51.98,57.71 54.68,53.02 53.26,51.65 62.43,53.25 56.75,55.17 58.57,61.48 	"/>
	<path class="st1" d="M58.8,61.77l-7.01-4l2.71-4.73l-1.67-1.61L63,53.2l-6.08,2.05L58.8,61.77z M52.17,57.66l6.17,3.52l-1.77-6.11
		l5.29-1.79l-8.18-1.43l1.17,1.13L52.17,57.66z"/>
	<polygon class="st1" points="54.68,53.02 52.46,52.26 52.99,51.48 	"/>
	<path class="st1" d="M21.59,57.03c0,0,13.59-1.85,20.34,0C41.94,57.03,32.47,61.84,21.59,57.03"/>
	<path class="st1" d="M31.74,59C15.94,59,3.09,46.16,3.09,30.36c0-15.79,12.85-28.64,28.65-28.64c15.8,0,28.65,12.85,28.65,28.64
		C60.39,46.16,47.54,59,31.74,59 M31.74,2C16.1,2,3.37,14.73,3.37,30.36S16.1,58.72,31.74,58.72c15.64,0,28.37-12.72,28.37-28.36
		S47.38,2,31.74,2"/>
	<path class="st1" d="M54.36,45.8c-0.4,0.1-1.92,1.55-1.92,1.55c-0.73,0.11-0.62-0.07-0.62-0.07s-0.09-0.01-0.05-0.01
		c0.05,0.01,0.39-0.41,0.39-0.41c0.06-0.24,0.56-0.59,0.56-0.59c0.13,0.21,1.98-0.88,1.98-0.88c0.76-0.01,2.5-0.75,2.5-0.75
		c0.21-0.07,0.96-0.82,1.05-1.09c0.01-0.02,0.02-0.05,0.03-0.07c0.11-0.24,0.35-0.5,0.35-0.5c0.7-0.52,0.8-1.31,0.8-1.31
		c-0.02-0.26,0.78-1.13,0.78-1.13c-0.85-0.02-1.61,0.46-1.61,0.46c-0.2,0.25-0.84,0.52-0.84,0.52c-0.78,0.1-2.18,1.44-2.18,1.44
		c-0.22,0.2-0.65,0.79-0.65,0.79c-0.59,0.38-0.96,1.19-0.96,1.19c-0.59,0.74-1.03,0.77-1.03,0.77c-0.09-0.04,1.11-2.19,1.11-2.19
		c0.23-0.52,0.62-0.67,0.62-0.67c1-0.19,2.17-1.47,2.17-1.47c0.88-0.38,1.65-1.37,1.65-1.37c0.63-0.62,1.12-2.24,1.12-2.24
		c0.13-0.29,0.3-1.04,0.3-1.04c0.33-0.46,0.29-0.9,0.29-0.9c-0.02,0.16-0.96,0.55-0.96,0.55c-0.21,0.06-0.27,0.05-0.27,0.05
		c-0.02,0.22-0.92,0.83-0.92,0.83l-0.23,0.09c-2.01,0.46-2.49,3.4-2.49,3.4c-0.06,0.53-0.6,1.35-0.6,1.35
		c-0.38,0.16-0.07-0.78-0.07-0.78c0.58-1.64,0.26-3.53,0.26-3.53s0.02-0.29,0.05-0.78c0.04-0.5,0.18-0.4,0.23-1.28
		c0.05-0.88,0.1-0.76,0.1-1.6c0-0.84,0.08-0.46,0.19-0.83c0.1-0.38,0.42-0.52,0.42-0.52c-0.06-0.17,0.66-0.73,0.66-0.73
		c0.14-0.13,0.49-0.64,0.49-0.64c1.29-2.28,1.02-3.87,1.02-3.87c-0.09-0.2-0.15-1.02-0.15-1.02c0.26-1.39-0.11-1.93-0.11-1.93
		c-0.23-0.37-0.17-0.46-0.17-0.46c0.07-0.23-0.02-1.12-0.02-1.12c0.02,0.33-1.23,1.42-1.23,1.42c-0.56,0.36-0.76,1.75-0.79,2.12
		c-0.01,0.14-0.18,0.77-0.18,0.77c-0.07,0.08-0.29,0.86-0.29,0.86c-0.18,0.27-0.12,1.81-0.12,1.81c-0.08,0.35,0.31,1.08,0.31,1.08
		c0.04,0.04,0.24,0.92,0.24,0.92l-0.06,0.54c0,0-0.22,0.15-0.32-0.65c0,0-0.56-2.13-0.81-2.82c0,0-0.09-0.59,0.04-1.2
		c0,0,0.24-0.76,0.33-0.83c0,0,0.27-0.34,0.17-1.24c0,0,0.03-0.51,0.17-0.71c0,0,0.81-1.15,0.02-2.76c0,0-0.25-0.74-0.4-0.89
		c0,0-0.38-0.79-0.19-1.7c0,0-0.32-0.09-0.69,1.16c0,0-0.35,1.09-0.46,1.35c0,0-0.14,0.32-0.09,0.83c0,0,0.01,0.6-0.05,0.75
		c0,0-0.37,1.07,0.15,2.22c0,0,0.4,1.14,0.35,1.45c0,0-0.12,0.08-0.3-0.28c0,0-1.13-2.18-1.18-2.57c0,0,0.01-0.77,0.14-1.23
		c0,0,0.83-1.27,0.58-2.87c0,0-0.09-0.91-0.61-1.41c0,0-0.28-0.6-0.33-1.07c0,0,0.03-1.09-0.73-1.57c0,0-0.48,2.56-0.77,3.15
		c0,0-0.69,1.19,0.58,3.84c0,0,0.12,0.06,0.02,0.21l-0.11,0.02c0,0-1.3-1.48-1.04-2.59c0,0,0.45-2.64-0.15-3.05
		c0,0-0.29-0.6-0.38-0.96c0,0,0.04-1.22-0.56-1.71c0,0-0.95-1.03-0.93-1.19c0,0-0.9,1.93-0.68,2.74c0,0,0.07,0.62,0.32,0.96
		c0,0,0.22,0.38,0.22,1.12c0,0-0.05,1.27,1.26,2.54c0,0,0.12,0.19-0.02,0.22c0,0-0.33-0.14-1.02-1.04c0,0-0.47-0.94-0.5-1.37
		c0,0-0.08-0.72-0.85-1.08c0,0-0.53-0.32-0.86-0.94c0,0-0.39-0.3-1.49-0.76c0,0,0.16,0.24,0.09,1.04c0,0-0.03,1.93,0.46,2.57
		c0.01,0.02,0.03,0.03,0.04,0.05c0.54,0.58,1.83,0.97,2.27,1.04c0,0,0.64,0.08,0.89,0.38c0.2,0.24,0.83,0.69,0.92,0.75
		c0.93,0.63,1.88,1.77,1.88,1.77c0.48,0.66,1.88,3.08,1.88,3.08s0.56,1.02-0.23,0.39c0,0-0.5-0.88-0.61-1.1c0,0-0.9-1.78-2.48-2.39
		l-2.99-0.3c0,0,0.55,0.55,0.64,0.72c0,0,0.99,1.49,1.2,1.67c0.33,0.28,0.89,0.63,1.75,1.08c0.58,0.3,1.17,0.67,2.35,0.99
		c0,0,0.54,0.18,1.23,0.98c0,0,0.78,1.91,0.87,2.84c0.01,0.13-0.14,0.13-0.14,0.13s-0.37-0.01-0.86-1.44c0,0-0.01-1-1.33-1.67
		c0,0-0.5-0.27-0.62-0.49c0,0-0.39-0.74-1.69-0.96l-2.27-0.44c0,0,0.64,0.51,0.73,0.68c0,0,0.81,1.29,0.94,1.55
		c0,0,0.7,1.89,3.6,2.68c0,0,0.4-0.05,0.85,0.5c0,0,0.47,0.43,0.57,1.36c0,0,0.39,1.82,0.45,2.28l-0.07,0.52l-0.13-0.26l-0.12-0.93
		c-0.02-0.79-0.59-1.6-0.59-1.6s-0.66-1.35-4.07-2.27c0,0,0.7,0.71,0.96,1.47c0,0,0.5,1.69,1.1,2.03c0,0,1,0.43,1.3,0.64
		c0.24,0.17,0.63,0.62,0.87,0.79c0.04,0.03,0.19,0.1,0.19,0.1l0.09,1.39c0,0,0.17,2.27-0.84,4.91c0,0-0.69,1.83-1.04,1.79
		c0,0-0.17-0.16,0.05-0.5c0,0,0.68-0.74,0.78-1.75c0,0,0.28-1.03,0.16-1.43c0,0-0.03-1.26-0.44-2.13c0,0-0.4-1.38-0.68-1.56
		c0,0-0.18,1.17-0.55,1.41c0,0-1.46,1.86-0.77,4.36c0,0,0.17,1.33,0.65,2.04c0,0,0.16,0.67-0.83,1.81c0,0-0.27,0.31-0.08-0.15
		c0,0,0.19-1.33-0.31-1.85c0,0-0.12,0.25-0.28,0.38c0,0-0.57,0.9-0.22,1.96c0,0,0.4,0.8-1.36,2.36c0,0-0.53,0.57-1.01,0.97
		c0.24,0.04,0.43,0.09,0.67,0.13c0.75-0.66,1.8-1.62,1.8-1.62c0.35-0.17,0.31-0.11,0.31-0.11c0.02,0.01,0.04,0.02,0.06,0.03
		c0.7,0.36,2.16,0.23,2.16,0.23c0.38-0.05,0.95-0.45,0.95-0.45c-1.07-1.08-1.87-0.56-1.87-0.56c-0.15,0.06-0.98,0.42-0.98,0.42
		c-0.1-0.06,0.58-0.72,0.58-0.72c0.26-0.5,0.81-0.45,0.81-0.45c0.84,0.15,1.33,0.38,1.33,0.38c0.67,0.43,1.9-0.11,1.9-0.11
		c0.12-0.08,0.63-0.23,0.63-0.23c1.08-0.23,1.79-1.13,1.79-1.13c0.09-0.15,0.96-0.53,0.96-0.53c0.85-0.24,1.13-1.09,1.13-1.09
		l-2.37-0.13C56.25,44.87,54.36,45.8,54.36,45.8"/>
	<path class="st2" d="M48.2,51.04l-0.05-0.01c-0.12-0.02-0.23-0.04-0.34-0.06c-0.11-0.02-0.22-0.05-0.34-0.06l-0.23-0.04l0.18-0.15
		c0.46-0.39,0.99-0.95,1-0.96c1.67-1.48,1.34-2.23,1.34-2.24c-0.37-1.1,0.2-2.02,0.22-2.06l0.02-0.02c0.13-0.11,0.25-0.34,0.25-0.34
		l0.07-0.13l0.1,0.11c0.47,0.49,0.38,1.59,0.35,1.87c0.73-0.9,0.71-1.47,0.69-1.57c-0.48-0.73-0.65-2.01-0.65-2.06
		c-0.69-2.51,0.77-4.42,0.79-4.44l0.03-0.02c0.28-0.18,0.46-1.03,0.51-1.34l0.02-0.16l0.14,0.09c0.3,0.19,0.66,1.38,0.73,1.62
		c0.39,0.83,0.44,2,0.44,2.15c0.12,0.43-0.15,1.44-0.16,1.48c-0.1,1.01-0.78,1.76-0.81,1.79c-0.1,0.15-0.1,0.26-0.08,0.31
		c0.18-0.12,0.57-0.87,0.89-1.71c1-2.59,0.84-4.84,0.84-4.86l-0.08-1.33c-0.05-0.03-0.12-0.06-0.15-0.08
		c-0.12-0.09-0.28-0.24-0.44-0.41c-0.15-0.15-0.31-0.31-0.42-0.39c-0.28-0.2-1.27-0.62-1.28-0.63c-0.64-0.37-1.14-2.03-1.16-2.1
		c-0.25-0.72-0.93-1.42-0.93-1.42l-0.27-0.28l0.37,0.1c3.41,0.92,4.11,2.27,4.13,2.32c0.01,0.01,0.24,0.34,0.41,0.79
		c-0.08-0.4-0.15-0.73-0.15-0.73c-0.1-0.89-0.53-1.3-0.54-1.3c-0.41-0.5-0.75-0.48-0.77-0.48l-0.02,0l-0.02,0
		c-2.92-0.8-3.64-2.67-3.67-2.75c-0.12-0.24-0.92-1.51-0.93-1.53c-0.06-0.11-0.45-0.45-0.71-0.66l-0.34-0.27l2.7,0.53
		c1.33,0.22,1.74,0.98,1.76,1.01c0.07,0.14,0.39,0.35,0.57,0.45c1.27,0.65,1.37,1.6,1.38,1.75c0.43,1.27,0.76,1.35,0.76,1.35
		c0,0,0.02-0.01,0.02-0.01c-0.09-0.86-0.79-2.62-0.86-2.8c-0.65-0.76-1.17-0.94-1.17-0.94c-1.02-0.28-1.6-0.59-2.12-0.87
		c-0.08-0.04-0.16-0.09-0.24-0.13c-0.85-0.44-1.42-0.8-1.77-1.09c-0.22-0.19-1.12-1.54-1.22-1.7c-0.07-0.12-0.42-0.5-0.62-0.7
		l-0.21-0.21l3.31,0.34c1.6,0.61,2.5,2.37,2.54,2.44c0.1,0.2,0.53,0.96,0.6,1.08c0.12,0.09,0.19,0.14,0.23,0.15
		c-0.02-0.09-0.09-0.27-0.18-0.43c-0.01-0.02-1.4-2.41-1.87-3.06c-0.01-0.01-0.94-1.14-1.85-1.75c-0.06-0.04-0.72-0.51-0.94-0.77
		c-0.22-0.26-0.82-0.34-0.82-0.35c-0.4-0.06-1.74-0.44-2.33-1.07c-0.01-0.02-0.03-0.03-0.04-0.05c-0.52-0.67-0.49-2.57-0.49-2.65
		c0.07-0.74-0.07-0.98-0.07-0.98l-0.16-0.27l0.29,0.12c1.1,0.45,1.5,0.76,1.52,0.77l0.03,0.03c0.32,0.59,0.82,0.9,0.83,0.9
		c0.8,0.38,0.89,1.13,0.9,1.16c0.03,0.4,0.49,1.32,0.49,1.33c0.42,0.55,0.71,0.8,0.85,0.91c-1.3-1.28-1.27-2.54-1.27-2.59
		c0-0.7-0.2-1.06-0.21-1.07c-0.25-0.34-0.33-0.97-0.33-1c-0.23-0.83,0.65-2.72,0.68-2.8l0.27-0.58l-0.07,0.64
		c0.02,0.1,0.49,0.66,0.9,1.11c0.59,0.48,0.59,1.62,0.59,1.77c0.08,0.31,0.3,0.8,0.36,0.91c0.6,0.48,0.21,2.86,0.17,3.14
		c-0.21,0.9,0.67,2.08,0.94,2.41L51,23.49c-1.28-2.67-0.6-3.89-0.57-3.94c0.27-0.57,0.75-3.09,0.75-3.12l0.03-0.15l0.13,0.08
		c0.8,0.5,0.78,1.61,0.78,1.66c0.05,0.4,0.27,0.91,0.32,1.01c0.53,0.52,0.62,1.42,0.63,1.46c0.24,1.54-0.49,2.77-0.59,2.92
		c-0.12,0.44-0.13,1.18-0.13,1.18c0.04,0.29,0.86,1.92,1.17,2.52c0.04,0.07,0.07,0.13,0.1,0.16c-0.04-0.31-0.22-0.89-0.35-1.25
		c-0.52-1.17-0.16-2.24-0.15-2.29c0.04-0.1,0.05-0.48,0.05-0.72c-0.05-0.52,0.09-0.86,0.1-0.87c0.1-0.25,0.45-1.33,0.46-1.34
		c0.37-1.24,0.72-1.26,0.82-1.23l0.1,0.03l-0.02,0.1c-0.17,0.8,0.13,1.51,0.17,1.62c0.16,0.18,0.37,0.79,0.41,0.91
		c0.8,1.63,0,2.8-0.04,2.85c-0.09,0.12-0.14,0.46-0.15,0.65c0.11,0.92-0.18,1.28-0.19,1.3c-0.06,0.07-0.2,0.46-0.31,0.8
		c-0.12,0.58-0.04,1.15-0.03,1.16c0.24,0.67,0.79,2.72,0.81,2.81c0.04,0.3,0.09,0.45,0.13,0.52l0.04-0.38
		c-0.08-0.37-0.18-0.77-0.22-0.86l-0.01-0.02c-0.04-0.08-0.39-0.76-0.32-1.14c-0.01-0.29-0.05-1.54,0.13-1.85
		c0.08-0.28,0.22-0.73,0.29-0.86c0.07-0.25,0.16-0.64,0.17-0.73c0-0.02,0.15-1.76,0.84-2.2c0.57-0.5,1.19-1.15,1.18-1.32l0.21-0.02
		c0.01,0.09,0.09,0.92,0.01,1.16l-0.01,0.02c0.01-0.01,0.01,0.09,0.17,0.35c0.01,0.02,0.39,0.59,0.13,1.99
		c0.03,0.32,0.09,0.84,0.14,0.97c0.02,0.09,0.28,1.68-1.02,3.97c-0.04,0.06-0.37,0.54-0.51,0.67c-0.33,0.26-0.62,0.55-0.63,0.63
		l0.03,0.09l-0.09,0.02c-0.01,0-0.27,0.13-0.36,0.45c-0.04,0.15-0.08,0.2-0.12,0.25c-0.03,0.03-0.06,0.06-0.06,0.56
		c0,0.5-0.02,0.67-0.04,0.9c-0.02,0.16-0.04,0.35-0.06,0.71c-0.03,0.53-0.09,0.71-0.15,0.88c-0.04,0.11-0.07,0.21-0.08,0.4
		c-0.04,0.49-0.05,0.78-0.05,0.78c0.01,0.06,0.32,1.91-0.27,3.56c-0.09,0.28-0.14,0.59-0.1,0.66c0,0,0,0,0,0
		c0.09-0.15,0.52-0.83,0.57-1.27c0.02-0.13,0.51-3.02,2.57-3.49l0.21-0.08c0.43-0.3,0.83-0.64,0.85-0.74l0.02-0.1l0.1,0.01
		c0,0,0.06,0,0.23-0.05c0.38-0.16,0.84-0.39,0.89-0.47l0.11-0.99l0.1,1.01c0,0.02,0.04,0.48-0.29,0.96
		c-0.03,0.12-0.19,0.77-0.3,1.04c-0.02,0.06-0.5,1.64-1.14,2.27c-0.02,0.03-0.77,0.99-1.66,1.38c-0.15,0.16-1.24,1.3-2.21,1.49
		c0,0-0.34,0.14-0.54,0.61c-0.43,0.78-0.89,1.64-1.05,1.99c0.17-0.07,0.45-0.25,0.79-0.66c0.05-0.11,0.41-0.84,0.97-1.21
		c0.07-0.1,0.44-0.61,0.65-0.8c0.06-0.05,1.42-1.34,2.23-1.46c0.18-0.08,0.64-0.29,0.78-0.48l0.03-0.02
		c0.03-0.02,0.8-0.49,1.67-0.47l0.23,0.01L60.3,40.6c-0.37,0.4-0.76,0.92-0.75,1.06c0,0.05-0.12,0.86-0.84,1.4
		c0,0-0.21,0.24-0.31,0.46c-0.01,0.02-0.02,0.04-0.02,0.06c-0.1,0.3-0.88,1.07-1.12,1.15c0,0-0.02,0.01-0.04,0.02
		c0.05,0,0.1-0.01,0.15-0.01l2.51,0.14l-0.04,0.13c-0.01,0.04-0.31,0.91-1.2,1.16c-0.38,0.17-0.85,0.41-0.9,0.49
		c-0.04,0.05-0.75,0.94-1.86,1.17c-0.2,0.06-0.52,0.17-0.59,0.22c-0.07,0.03-1.31,0.58-2.02,0.12v0c0,0-0.48-0.23-1.29-0.37
		c-0.01,0-0.48-0.03-0.7,0.4l-0.02,0.03c-0.14,0.14-0.3,0.3-0.41,0.43c0.26-0.11,0.6-0.26,0.69-0.3c0.02-0.02,0.87-0.54,1.99,0.58
		l0.09,0.09l-0.1,0.07c-0.02,0.02-0.6,0.42-1,0.47c-0.07,0.01-1.5,0.13-2.22-0.24c-0.01-0.01-0.03-0.01-0.04-0.02
		c-0.03,0.01-0.09,0.04-0.21,0.09c-0.12,0.11-1.08,0.99-1.79,1.61L48.2,51.04z M47.73,50.74c0.04,0.01,0.09,0.02,0.13,0.03
		c0.09,0.02,0.18,0.04,0.28,0.05c0.74-0.65,1.75-1.58,1.76-1.59l0.02-0.02c0.29-0.14,0.37-0.16,0.43-0.09l0,0
		c0.01,0,0.01,0.01,0.02,0.01c0.67,0.35,2.09,0.22,2.1,0.22c0.25-0.03,0.62-0.25,0.8-0.36c-0.94-0.88-1.62-0.47-1.65-0.45
		c-0.16,0.07-1,0.43-1,0.43l-0.05,0.02l-0.09-0.05l-0.02-0.07c-0.01-0.05-0.02-0.17,0.61-0.78c0.29-0.54,0.88-0.5,0.91-0.49
		c0.86,0.15,1.35,0.38,1.37,0.39c0.63,0.4,1.8-0.11,1.81-0.12c0.11-0.08,0.56-0.21,0.65-0.24c1.04-0.22,1.73-1.08,1.74-1.09
		c0.09-0.15,0.73-0.44,1-0.56c0.6-0.17,0.91-0.66,1.02-0.9l-2.22-0.12c-1.07,0.03-2.93,0.93-2.95,0.94l-0.02,0.01
		c-0.27,0.07-1.27,0.95-1.87,1.52l-0.02,0.02l-0.03,0c-0.54,0.08-0.67,0.01-0.72-0.07c0,0,0-0.01-0.01-0.01l-0.07-0.01l0-0.11
		c0.01-0.06,0.04-0.08,0.09-0.09c0.05-0.04,0.2-0.21,0.32-0.35c0.08-0.26,0.51-0.57,0.6-0.63l0.09-0.06l0.05,0.07c0,0,0,0,0.01,0
		c0.2,0,1.1-0.45,1.85-0.89l0.02-0.01h0.03c0.73-0.01,2.44-0.74,2.46-0.75c0.19-0.07,0.92-0.79,1-1.02
		c0.01-0.02,0.02-0.05,0.03-0.08c0.12-0.26,0.36-0.52,0.37-0.53c0.66-0.49,0.77-1.24,0.77-1.25c-0.02-0.21,0.38-0.71,0.64-1.01
		c-0.65,0.05-1.21,0.37-1.3,0.42c-0.23,0.26-0.84,0.52-0.87,0.53l-0.03,0.01c-0.73,0.1-2.11,1.4-2.13,1.41
		c-0.22,0.19-0.63,0.77-0.63,0.78L55,43.82c-0.55,0.36-0.92,1.14-0.92,1.15l-0.01,0.02c-0.62,0.76-1.09,0.8-1.11,0.8l-0.03,0
		l-0.07-0.03l-0.02-0.05c-0.02-0.05-0.05-0.16,1.13-2.27c0.24-0.55,0.66-0.71,0.67-0.72c0.97-0.18,2.12-1.43,2.13-1.44l0.04-0.03
		c0.85-0.36,1.6-1.33,1.6-1.34c0.61-0.6,1.1-2.19,1.1-2.21c0.12-0.29,0.3-1.03,0.3-1.04l0.02-0.04c0.16-0.22,0.22-0.43,0.25-0.59
		c-0.15,0.1-0.39,0.22-0.8,0.39c-0.11,0.03-0.19,0.04-0.24,0.05c-0.14,0.26-0.68,0.65-0.93,0.81l-0.25,0.1
		c-1.94,0.44-2.42,3.29-2.43,3.32c-0.06,0.54-0.6,1.36-0.62,1.39l-0.02,0.03l-0.03,0.01c-0.14,0.06-0.22,0.01-0.25-0.02
		c-0.17-0.16-0.03-0.68,0.04-0.89c0.57-1.6,0.26-3.46,0.26-3.48c0-0.02,0.01-0.31,0.05-0.81c0.02-0.22,0.06-0.33,0.1-0.45
		c0.05-0.15,0.11-0.33,0.14-0.83c0.02-0.36,0.04-0.56,0.06-0.72c0.02-0.23,0.04-0.39,0.04-0.88c0-0.53,0.03-0.61,0.11-0.7
		c0.02-0.02,0.05-0.05,0.08-0.16c0.09-0.32,0.31-0.49,0.42-0.55c0.04-0.17,0.27-0.42,0.69-0.75c0.1-0.09,0.37-0.48,0.47-0.62
		c1.26-2.21,1-3.78,1-3.8c-0.08-0.19-0.15-0.94-0.15-1.03l0-0.01l0-0.01c0.25-1.32-0.09-1.85-0.1-1.85
		c-0.2-0.32-0.21-0.48-0.18-0.55c0.03-0.11,0.02-0.41,0.01-0.7c-0.29,0.4-0.87,0.92-1.09,1.11c-0.51,0.33-0.72,1.62-0.76,2.05
		c-0.01,0.14-0.16,0.72-0.18,0.78l-0.02,0.04c-0.04,0.05-0.17,0.47-0.27,0.82l-0.01,0.03c-0.11,0.17-0.13,1.12-0.1,1.75l0,0.01
		l0,0.01c-0.06,0.26,0.2,0.82,0.3,1.01c0.03,0.06,0.09,0.23,0.25,0.94l0,0.02l-0.07,0.61l-0.04,0.03c-0.04,0.03-0.11,0.05-0.19,0.01
		c-0.15-0.07-0.24-0.3-0.3-0.74c0-0.01-0.56-2.12-0.81-2.8c-0.01-0.04-0.1-0.64,0.03-1.26c0.12-0.37,0.27-0.82,0.36-0.89
		c0,0,0.22-0.33,0.13-1.15c0-0.07,0.03-0.57,0.19-0.78c0.03-0.04,0.76-1.12,0.01-2.65c-0.1-0.29-0.28-0.76-0.38-0.86l-0.02-0.03
		c-0.01-0.03-0.34-0.71-0.23-1.55c-0.1,0.12-0.27,0.39-0.45,1c-0.02,0.05-0.36,1.1-0.46,1.36c0,0.01-0.13,0.31-0.08,0.78
		c0,0.11,0.01,0.64-0.06,0.8c0,0-0.34,1.04,0.14,2.14c0.05,0.13,0.42,1.18,0.36,1.51l-0.01,0.04l-0.04,0.03
		c-0.01,0.01-0.07,0.04-0.14,0.02c-0.11-0.03-0.21-0.14-0.31-0.34c-0.12-0.22-1.14-2.21-1.19-2.61c0-0.05,0.01-0.81,0.14-1.27
		l0.01-0.03c0.01-0.01,0.8-1.26,0.56-2.79c0-0.01-0.09-0.89-0.58-1.35l-0.02-0.03c-0.01-0.03-0.29-0.62-0.34-1.1
		c0-0.02,0.01-0.92-0.56-1.4c-0.11,0.58-0.5,2.5-0.74,3.01c-0.01,0.02-0.64,1.19,0.56,3.73c0.03,0.02,0.06,0.06,0.07,0.12
		c0.01,0.05,0.02,0.13-0.05,0.22l-0.02,0.04l-0.22,0.04l-0.04-0.04c-0.05-0.06-1.34-1.53-1.06-2.68c0.17-0.99,0.29-2.67-0.11-2.94
		l-0.02-0.02l-0.01-0.03c-0.01-0.02-0.3-0.61-0.39-0.99l0-0.01l0-0.01c0-0.01,0.03-1.18-0.52-1.63c-0.43-0.46-0.71-0.8-0.86-1.03
		c-0.22,0.51-0.75,1.85-0.58,2.47c0,0.02,0.07,0.61,0.3,0.92c0.02,0.03,0.24,0.42,0.24,1.19c0,0.02-0.03,1.24,1.23,2.46
		c0.04,0.06,0.11,0.18,0.06,0.29c-0.02,0.06-0.07,0.09-0.14,0.11l-0.03,0.01l-0.03-0.01c-0.04-0.01-0.37-0.17-1.07-1.07
		c-0.03-0.06-0.49-0.98-0.53-1.42c0-0.02-0.08-0.66-0.79-1c-0.03-0.02-0.55-0.34-0.9-0.96c-0.08-0.06-0.44-0.3-1.24-0.64
		c0.03,0.17,0.06,0.45,0.02,0.87c0,0.01-0.03,1.9,0.44,2.5c0.01,0.02,0.02,0.03,0.04,0.04c0.52,0.56,1.78,0.94,2.21,1.01
		c0.03,0,0.68,0.09,0.95,0.42c0.19,0.22,0.81,0.67,0.9,0.73c0.94,0.63,1.86,1.75,1.9,1.79c0.48,0.66,1.83,2.99,1.89,3.09
		c0.21,0.38,0.26,0.62,0.15,0.72c-0.13,0.11-0.33-0.03-0.53-0.19l-0.03-0.03c-0.02-0.04-0.5-0.88-0.61-1.11
		c-0.01-0.02-0.89-1.75-2.41-2.33l-2.69-0.27c0.17,0.18,0.39,0.42,0.45,0.54c0.39,0.58,1.03,1.51,1.18,1.64
		c0.33,0.28,0.91,0.64,1.73,1.06c0.08,0.04,0.16,0.08,0.24,0.13c0.51,0.27,1.08,0.58,2.08,0.85c0.03,0.01,0.58,0.2,1.28,1.02
		l0.02,0.03c0.03,0.08,0.78,1.94,0.88,2.87c0.01,0.08-0.02,0.13-0.05,0.16c-0.07,0.08-0.17,0.08-0.19,0.08
		c-0.08,0-0.48-0.09-0.96-1.51l-0.01-0.03c0-0.04-0.03-0.95-1.27-1.58c-0.06-0.03-0.53-0.29-0.66-0.54c0-0.01-0.38-0.7-1.61-0.9
		l-1.87-0.37c0.19,0.16,0.39,0.35,0.44,0.45c0.03,0.05,0.81,1.29,0.94,1.55c0.01,0.03,0.72,1.85,3.52,2.62
		c0.1,0,0.49,0.02,0.92,0.54c0.01,0.01,0.49,0.45,0.59,1.41c0.01,0.06,0.39,1.82,0.45,2.28l0,0.01l-0.12,0.87l-0.29-0.59l-0.12-0.93
		c-0.02-0.76-0.56-1.55-0.57-1.55c-0.01-0.03-0.66-1.25-3.66-2.13c0.23,0.28,0.57,0.75,0.74,1.24c0.14,0.46,0.59,1.71,1.05,1.98
		c0.03,0.01,1.01,0.43,1.31,0.64c0.13,0.09,0.29,0.25,0.45,0.41c0.15,0.15,0.31,0.3,0.42,0.38c0.03,0.02,0.12,0.07,0.17,0.09
		l0.05,0.03l0.09,1.45c0,0.02,0.16,2.32-0.85,4.95c-0.22,0.57-0.76,1.9-1.15,1.86l-0.04,0l-0.03-0.03
		c-0.01-0.01-0.23-0.23,0.04-0.63c0.02-0.02,0.67-0.74,0.77-1.7c0.08-0.3,0.26-1.09,0.16-1.39l-0.01-0.03
		c0-0.01-0.04-1.25-0.43-2.09c-0.13-0.45-0.35-1.07-0.52-1.36c-0.07,0.36-0.24,1.03-0.54,1.25c-0.12,0.16-1.38,1.94-0.74,4.26
		c0,0.03,0.17,1.32,0.63,2l0.02,0.03c0.01,0.03,0.16,0.74-0.85,1.91c-0.07,0.08-0.17,0.18-0.27,0.12c-0.1-0.06-0.06-0.21,0.02-0.38
		c0,0,0.15-1.09-0.2-1.62c-0.05,0.08-0.13,0.19-0.21,0.26c-0.06,0.11-0.51,0.93-0.2,1.86c0.01,0.02,0.41,0.87-1.39,2.47
		C48.58,49.91,48.16,50.36,47.73,50.74 M51.95,47.27c0.06,0.01,0.18,0.01,0.44-0.02c0.17-0.16,0.88-0.83,1.41-1.23
		c-0.67,0.34-0.94,0.4-1.06,0.38c-0.19,0.14-0.44,0.37-0.47,0.5l-0.02,0.04c-0.13,0.16-0.22,0.26-0.28,0.32L51.95,47.27z
		 M51.78,47.16c-0.01,0-0.01,0-0.02,0C51.77,47.16,51.78,47.16,51.78,47.16L51.78,47.16C51.78,47.16,51.78,47.16,51.78,47.16
		 M54.74,45.49c-0.03,0.02-0.06,0.03-0.09,0.05c0.04-0.02,0.08-0.03,0.12-0.05C54.76,45.49,54.75,45.49,54.74,45.49 M54.53,35.84
		l0.07,0.55l0.01-0.08C54.59,36.2,54.57,36.04,54.53,35.84 M51.01,23.52c0.01,0.02,0.02,0.03,0.03,0.04c0-0.01,0-0.02-0.01-0.03
		L51.01,23.52z"/>
	<path class="st1" d="M45.87,50.47l0.54-0.54c0,0-0.12-4.67,1.63-5.92c0,0,0.67-0.51,0.76-0.93c0,0,0.71,1.03,0,2.71
		c0,0-0.16,0.83-0.11,0.94c0.05,0.11-0.36,3.16-1.7,3.85l-0.22,0.07L45.87,50.47z"/>
	<path class="st2" d="M46.77,50.76l-1.12-0.22l0.65-0.64c-0.01-0.52-0.03-4.74,1.67-5.96c0.18-0.13,0.65-0.55,0.72-0.86l0.05-0.24
		l0.14,0.2c0.03,0.04,0.73,1.1,0.01,2.81c-0.06,0.34-0.13,0.78-0.11,0.86c0.1,0.2-0.41,3.29-1.75,3.98L46.77,50.76z M46.08,50.41
		l0.68,0.14l0.2-0.06c1.21-0.62,1.66-3.48,1.63-3.72c-0.05-0.1,0.03-0.59,0.11-0.98c0.51-1.22,0.27-2.08,0.12-2.44
		c-0.21,0.38-0.68,0.74-0.71,0.76c-1.69,1.21-1.59,5.79-1.59,5.83l0,0.05L46.08,50.41z"/>
	<path class="st1" d="M13.12,18.4c-0.2,0.24-0.39,0.48-0.57,0.72C12.86,18.71,13.07,18.46,13.12,18.4"/>
	<path class="st1" d="M13.79,44.94c0,0,2.18,2.04,0.02,5.35l-0.9-1.01C12.91,49.28,11.67,47.36,13.79,44.94"/>
	<path class="st0" d="M13.82,50.46l-0.99-1.11c-0.02-0.03-1.27-2.04,0.88-4.48l0.07-0.08l0.08,0.07c0.02,0.02,2.22,2.14,0.04,5.48
		L13.82,50.46z M13.79,45.1c-1.94,2.29-0.81,4.11-0.79,4.13l0.8,0.89C15.55,47.31,14.15,45.49,13.79,45.1"/>
	<path class="st1" d="M11.39,47.4c0,0,2.42-2.21,0.82-5.12c0,0-2.32,1.69-1.54,4.11L11.39,47.4z"/>
	<path class="st0" d="M11.37,47.55l-0.81-1.13c-0.79-2.47,1.56-4.21,1.58-4.23l0.1-0.07l0.06,0.1c1.63,2.95-0.81,5.23-0.84,5.25
		L11.37,47.55z M10.75,46.34l0.65,0.89c0.41-0.42,2.05-2.33,0.77-4.8C11.75,42.79,10.11,44.31,10.75,46.34"/>
	<path class="st1" d="M9.37,44.21c0,0,2.91-1.7,1.74-4.88c0,0-2.72,1.32-2.15,4.07L9.37,44.21z"/>
	<path class="st0" d="M9.32,44.35l-0.46-0.93c-0.58-2.8,2.18-4.18,2.2-4.19l0.1-0.05l0.04,0.11c1.18,3.22-1.76,4.99-1.79,5.01
		L9.32,44.35z M9.07,43.36l0.34,0.69c0.49-0.32,2.56-1.88,1.64-4.58C10.57,39.75,8.59,41.04,9.07,43.36"/>
	<path class="st1" d="M7.65,40.08c0,0-0.42-2.78,2.78-3.81c0,0,0.92,2.95-2.57,4.54L7.65,40.08z"/>
	<path class="st0" d="M7.8,40.95l-0.25-0.86c0-0.03-0.4-2.89,2.86-3.93l0.1-0.03l0.03,0.1c0.01,0.03,0.9,3.06-2.63,4.67L7.8,40.95z
		 M7.75,40.05l0.18,0.61c2.88-1.38,2.54-3.74,2.43-4.26C7.44,37.39,7.73,39.87,7.75,40.05"/>
	<path class="st1" d="M7.01,36.28c0,0-0.02-2.59,3.36-3.21c0,0,0.32,2.92-3.3,3.85L7.01,36.28z"/>
	<path class="st0" d="M6.97,37.05L6.9,36.28c0-0.03,0.01-2.68,3.44-3.32l0.11-0.02l0.01,0.11c0,0.03,0.29,3.03-3.38,3.97L6.97,37.05
		z M7.11,36.27l0.05,0.51c2.97-0.82,3.11-3.06,3.11-3.59C7.17,33.82,7.11,36.13,7.11,36.27"/>
	<path class="st1" d="M7.09,32.12c0,0,0.63-2.43,3.69-2.35c0,0-0.23,2.84-3.78,3.14L7.09,32.12z"/>
	<path class="st0" d="M6.89,33.02l0.1-0.93c0.01-0.03,0.69-2.52,3.8-2.43l0.11,0l-0.01,0.11c0,0.03-0.28,2.94-3.87,3.23L6.89,33.02z
		 M7.19,32.14l-0.07,0.65c2.91-0.3,3.45-2.41,3.54-2.92c-0.01,0-0.03,0-0.04,0C7.87,29.87,7.24,31.97,7.19,32.14"/>
	<path class="st1" d="M7.91,28.2c0,0,1-2.31,4.01-1.75c0,0-0.66,2.78-4.21,2.52L7.91,28.2z"/>
	<path class="st0" d="M8.16,29.09c-0.15,0-0.3-0.01-0.46-0.02l-0.13-0.01l0.24-0.9c0.01-0.02,1.07-2.38,4.13-1.81l0.11,0.02
		l-0.03,0.11C12.02,26.5,11.36,29.09,8.16,29.09 M7.84,28.87c2.96,0.16,3.79-1.84,3.95-2.34c-2.75-0.45-3.71,1.55-3.78,1.7
		L7.84,28.87z"/>
	<path class="st1" d="M9.41,24.33c0,0,1.28-1.97,3.97-0.98c0,0-1.05,2.45-4.28,1.65L9.41,24.33z"/>
	<path class="st0" d="M10.32,25.27c-0.38,0-0.79-0.05-1.25-0.16l-0.12-0.03l0.37-0.8c0.01-0.02,1.36-2.03,4.09-1.02l0.1,0.04
		l-0.04,0.1C13.47,23.41,12.64,25.27,10.32,25.27 M9.25,24.93c2.64,0.59,3.74-1.08,3.98-1.52c-2.45-0.84-3.64,0.83-3.73,0.97
		L9.25,24.93z"/>
	<path class="st1" d="M11.3,20.8c0,0,1.64-2.11,4.34-0.41c0,0-1.23,2.25-4.53,0.7L11.3,20.8z"/>
	<path class="st0" d="M13.24,21.74c-0.6,0-1.32-0.15-2.17-0.55l-0.11-0.05l0.25-0.4c0.02-0.02,1.73-2.16,4.48-0.43l0.08,0.05
		l-0.05,0.09C15.73,20.46,15,21.74,13.24,21.74 M11.27,21.05c2.76,1.24,3.97-0.24,4.23-0.62c-2.49-1.5-4.04,0.34-4.11,0.44
		L11.27,21.05z"/>
	<path class="st1" d="M10.98,21.11c0,0-2.07-2.41-0.36-4.63c0,0,1.92,1.76,0.92,3.84L10.98,21.11z"/>
	<path class="st0" d="M10.99,21.28l-0.09-0.1c-0.02-0.02-2.1-2.5-0.36-4.76l0.07-0.09l0.08,0.08c0.02,0.02,1.97,1.83,0.94,3.96
		L10.99,21.28z M10.64,16.64c-1.32,1.85-0.01,3.82,0.34,4.3l0.48-0.68C12.29,18.53,10.99,17.01,10.64,16.64"/>
	<path class="st1" d="M9.02,24.63c0,0-2.44-2.02-1.14-4.5c0,0,2.19,1.41,1.56,3.63L9.02,24.63z"/>
	<path class="st0" d="M9.06,24.8l-0.1-0.09c-0.03-0.02-2.49-2.1-1.16-4.63l0.05-0.1l0.1,0.06c0.02,0.01,2.25,1.47,1.6,3.74
		L9.06,24.8z M7.92,20.29c-0.99,2.04,0.63,3.77,1.07,4.17l0.36-0.75C9.87,21.87,8.33,20.59,7.92,20.29"/>
	<path class="st1" d="M5.45,24.23c0,0-1.03,2.54,1.98,4.42l0.26-0.79C7.69,27.85,8.09,25.35,5.45,24.23"/>
	<path class="st0" d="M7.49,28.81l-0.11-0.07c-3.05-1.91-2.03-4.52-2.02-4.55l0.04-0.1l0.1,0.04c2.69,1.14,2.3,3.71,2.3,3.74
		L7.49,28.81z M5.51,24.37c-0.15,0.48-0.61,2.5,1.86,4.12l0.21-0.66C7.6,27.74,7.93,25.46,5.51,24.37"/>
	<path class="st1" d="M3.98,28.55c0,0-0.61,2.72,2.63,4.04l0.17-1.11C6.78,31.47,6.79,29.2,3.98,28.55"/>
	<path class="st0" d="M6.7,32.73l-0.12-0.05c-3.29-1.34-2.7-4.13-2.7-4.16l0.02-0.1L4,28.44c2.86,0.66,2.88,3.01,2.88,3.03
		L6.7,32.73z M4.06,28.68c-0.07,0.5-0.21,2.61,2.46,3.76l0.15-0.98C6.68,31.39,6.65,29.33,4.06,28.68"/>
	<path class="st1" d="M3.33,37.33c0,0,0.42,3.06,3.93,2.98L6.92,38.9C6.92,38.9,6.18,37.05,3.33,37.33"/>
	<path class="st0" d="M7.11,40.41c-3.43,0-3.89-3.04-3.89-3.07l-0.02-0.11l0.11-0.01c2.89-0.28,3.69,1.61,3.7,1.63l0.37,1.55
		l-0.13,0C7.21,40.41,7.16,40.41,7.11,40.41 M3.45,37.42c0.11,0.53,0.75,2.78,3.66,2.78h0.01l-0.3-1.28
		C6.8,38.86,6.09,37.22,3.45,37.42"/>
	<path class="st1" d="M8.6,44.1c0,0-3.58,0.68-4.54-2.25c0,0,2.72-0.82,4.06,1.17L8.6,44.1z"/>
	<path class="st0" d="M7.75,44.26c-1.15,0-3.11-0.32-3.79-2.39l-0.03-0.1l0.1-0.03c0.03-0.01,2.81-0.82,4.18,1.21l0.54,1.23
		L8.62,44.2C8.61,44.2,8.26,44.26,7.75,44.26 M4.2,41.91c0.86,2.38,3.61,2.18,4.25,2.1l-0.42-0.96C6.91,41.38,4.71,41.79,4.2,41.91"
		/>
	<path class="st1" d="M5.5,46.06c0,0,2.53-1.33,4.38,0.44l0.62,0.95C10.5,47.45,7.2,48.94,5.5,46.06"/>
	<path class="st0" d="M8.59,47.94c-1.06,0-2.32-0.37-3.18-1.82l-0.06-0.09l0.1-0.05c0.03-0.01,2.61-1.35,4.5,0.46l0.7,1.07
		l-0.11,0.05C10.53,47.56,9.66,47.94,8.59,47.94 M5.65,46.11c1.47,2.35,4.11,1.52,4.69,1.3L9.8,46.56
		C8.23,45.07,6.13,45.89,5.65,46.11"/>
	<path class="st1" d="M7.79,50.14c0,0,2.39-1.93,4.51-0.3l0.73,0.83C13.03,50.67,10.13,52.61,7.79,50.14"/>
	<path class="st0" d="M10.56,51.49c-0.9,0-1.92-0.3-2.84-1.28l-0.08-0.08l0.09-0.07c0.02-0.02,2.48-1.97,4.64-0.31l0.82,0.93
		l-0.1,0.07C13.07,50.77,11.96,51.49,10.56,51.49 M7.95,50.16c1.99,2,4.4,0.79,4.92,0.49l-0.65-0.73
		C10.44,48.54,8.4,49.83,7.95,50.16"/>
	<path class="st1" d="M3.31,32.98c0,0-0.2,2.93,3.26,3.51l-0.05-1.38C6.51,35.12,6.25,33.31,3.31,32.98"/>
	<path class="st0" d="M6.67,36.62L6.55,36.6c-3.51-0.59-3.35-3.59-3.34-3.62l0.01-0.11l0.11,0.01c2.98,0.34,3.29,2.15,3.3,2.22
		L6.67,36.62z M3.41,33.1c0,0.53,0.19,2.72,3.04,3.27l-0.05-1.25C6.4,35.06,6.12,33.45,3.41,33.1"/>
	<path class="st1" d="M10.87,21.62c0.01-0.01,0.02-0.03,0.03-0.05c1.25-1.78,2.39-2.96,2.39-2.96l-0.15-0.23
		c-4.02,3.67-5.72,10.34-5.72,10.34C3.35,42.33,14.09,51.6,14.09,51.6l0.82-0.16C2.54,39.79,7.44,27.35,10.87,21.62"/>
	<path class="st0" d="M14.08,51.64l-0.01-0.01c-0.03-0.02-2.71-2.37-4.87-6.34c-1.27-2.34-2.1-4.77-2.49-7.24
		c-0.48-3.08-0.26-6.22,0.67-9.33c0.02-0.07,1.75-6.72,5.73-10.36l0.03-0.03l0.19,0.28l-0.02,0.02c-0.01,0.01-1.15,1.21-2.39,2.96
		l-0.03,0.04c-3.71,6.21-8.12,18.33,4.03,29.78l0.05,0.05L14.08,51.64z M13.13,18.44c-3.94,3.63-5.66,10.23-5.68,10.3
		c-2.09,7.02-0.17,12.85,1.81,16.51c2.07,3.83,4.64,6.14,4.84,6.31l0.74-0.14c-5.37-5.08-8.03-10.84-7.9-17.11
		c0.11-5.28,2.19-9.83,3.91-12.71l0.03-0.04c1.15-1.63,2.22-2.78,2.37-2.95L13.13,18.44z"/>
	<path class="st1" d="M13.16,18.34c0,0,0.24-1.92,2.75-1.76c0,0-0.8,2.23-2.58,1.97L13.16,18.34z"/>
	<path class="st0" d="M13.61,18.68c-0.1,0-0.2-0.01-0.3-0.02l-0.04-0.01l-0.22-0.28l0.01-0.04c0-0.02,0.29-2.01,2.86-1.85l0.14,0.01
		l-0.05,0.13C16,16.64,15.25,18.68,13.61,18.68 M13.39,18.46c1.4,0.17,2.17-1.32,2.37-1.78c-2.06-0.06-2.43,1.36-2.48,1.64
		L13.39,18.46z"/>
	<path class="st0" d="M8.64,53.06c0,0,26.04-7.61,45.88,0l-3.34,5.84c0,0-16.72-6.01-38.95,0L8.64,53.06z"/>
	<path class="st1" d="M51.24,59.07l-0.11-0.04c-0.17-0.06-16.94-5.93-38.87,0l-0.1,0.03l-3.74-6.08l0.18-0.05
		c0.26-0.08,26.31-7.54,45.97,0l0.15,0.06L51.24,59.07z M8.86,53.14l3.44,5.59c21.03-5.66,37.32-0.51,38.82-0.01l3.2-5.59
		C35.62,46.04,11.18,52.5,8.86,53.14"/>
	<path class="st1" d="M12.75,55.64l0.13,0.52l1.22-0.3c0.03-0.01,0.05-0.02,0.06-0.03c0.01-0.02,0.02-0.04,0.02-0.08l0.04-0.01
		l0.12,0.49l-0.04,0.01c-0.02-0.03-0.03-0.05-0.05-0.06c-0.02-0.01-0.04-0.01-0.07,0l-1.72,0.43l-0.01-0.04
		c0.03-0.02,0.05-0.03,0.06-0.05c0.01-0.02,0.01-0.04,0-0.07l-0.4-1.6c-0.01-0.03-0.02-0.05-0.04-0.06
		c-0.02-0.01-0.04-0.02-0.08-0.02l-0.01-0.04l1.68-0.42c0.03-0.01,0.05-0.02,0.06-0.04c0.01-0.02,0.02-0.04,0.02-0.08l0.04-0.01
		l0.12,0.49l-0.04,0.01c-0.02-0.03-0.04-0.05-0.05-0.06c-0.02-0.01-0.04-0.01-0.07,0l-1.18,0.29l0.11,0.45l0.77-0.19
		c0.03-0.01,0.05-0.02,0.06-0.03c0.01-0.02,0.02-0.04,0.02-0.08l0.04-0.01l0.12,0.48l-0.04,0.01c-0.02-0.03-0.04-0.05-0.05-0.06
		c-0.02-0.01-0.04-0.01-0.07,0L12.75,55.64z"/>
	<path class="st1" d="M14.65,55.9l-0.34-1.61c-0.01-0.03-0.02-0.05-0.03-0.06c-0.02-0.01-0.04-0.02-0.08-0.02l-0.01-0.04l1.06-0.23
		c0.23-0.05,0.42-0.06,0.55-0.03c0.2,0.04,0.35,0.14,0.48,0.3c0.1,0.13,0.17,0.28,0.21,0.47c0.07,0.33,0.02,0.6-0.14,0.82
		c-0.07,0.09-0.16,0.16-0.26,0.22c-0.11,0.06-0.25,0.1-0.42,0.14l-1.06,0.23l-0.01-0.04c0.03-0.02,0.05-0.03,0.06-0.05
		C14.66,55.96,14.66,55.93,14.65,55.9 M15.03,55.65l0.52-0.11c0.17-0.04,0.29-0.08,0.36-0.15c0.16-0.14,0.21-0.35,0.15-0.63
		c-0.04-0.2-0.13-0.35-0.25-0.44c-0.07-0.05-0.14-0.08-0.22-0.09c-0.08-0.01-0.19,0-0.31,0.03l-0.52,0.11L15.03,55.65z"/>
	<path class="st1" d="M18.61,53.44l0.2,1.07c0.04,0.2,0.03,0.36-0.03,0.48c-0.1,0.21-0.36,0.35-0.79,0.43
		c-0.31,0.06-0.55,0.05-0.73-0.02c-0.11-0.04-0.18-0.11-0.24-0.2c-0.05-0.09-0.09-0.2-0.12-0.34l-0.2-1.07
		c-0.01-0.03-0.02-0.05-0.03-0.06c-0.02-0.01-0.04-0.02-0.08-0.02l-0.01-0.04l0.6-0.11l0.01,0.04c-0.03,0.01-0.05,0.03-0.06,0.05
		c-0.01,0.02-0.01,0.04-0.01,0.07l0.17,0.96c0.02,0.11,0.04,0.19,0.06,0.24c0.02,0.05,0.05,0.09,0.09,0.12
		c0.11,0.08,0.27,0.1,0.49,0.06c0.22-0.04,0.36-0.12,0.44-0.23c0.03-0.04,0.04-0.09,0.04-0.15c0-0.06-0.01-0.14-0.03-0.25
		l-0.17-0.96c-0.01-0.03-0.02-0.05-0.03-0.06c-0.02-0.01-0.04-0.02-0.08-0.02l-0.01-0.04l0.56-0.1l0.01,0.04
		c-0.03,0.02-0.05,0.03-0.06,0.05C18.6,53.39,18.6,53.41,18.61,53.44"/>
	<path class="st1" d="M21.07,54.2l0.33,0.36l-0.03,0.03c-0.03-0.02-0.05-0.03-0.07-0.03c-0.02,0-0.06,0.03-0.13,0.09
		c-0.15,0.12-0.27,0.2-0.38,0.25c-0.11,0.05-0.23,0.09-0.39,0.11c-0.3,0.05-0.56,0.01-0.78-0.1c-0.13-0.07-0.23-0.16-0.32-0.27
		c-0.1-0.13-0.16-0.28-0.19-0.45c-0.04-0.23,0-0.45,0.11-0.64c0.17-0.29,0.45-0.47,0.87-0.53c0.15-0.02,0.29-0.03,0.4-0.01
		c0.11,0.01,0.26,0.06,0.44,0.13c0.08,0.03,0.14,0.05,0.15,0.04c0.02,0,0.04-0.02,0.06-0.05l0.04,0.02l-0.21,0.44l-0.04-0.02
		c0-0.02,0-0.03,0-0.04c0-0.03-0.02-0.05-0.05-0.07c-0.03-0.02-0.07-0.04-0.14-0.07c-0.18-0.07-0.36-0.09-0.55-0.06
		c-0.22,0.03-0.39,0.12-0.5,0.25c-0.13,0.15-0.19,0.33-0.15,0.54c0.03,0.21,0.14,0.36,0.31,0.47c0.15,0.09,0.33,0.12,0.55,0.08
		c0.19-0.03,0.36-0.1,0.51-0.22c0.06-0.04,0.09-0.08,0.11-0.11c0.02-0.03,0.03-0.05,0.02-0.08c0-0.01,0-0.02-0.01-0.04L21.07,54.2z"
		/>
	<path class="st1" d="M23.03,54.11l-0.88,0.11l-0.1,0.29c-0.01,0.04-0.02,0.07-0.02,0.09c0.01,0.04,0.04,0.07,0.11,0.07l0.01,0.04
		l-0.64,0.08l-0.01-0.05c0.04-0.01,0.06-0.03,0.08-0.05c0.02-0.02,0.04-0.06,0.05-0.12l0.52-1.58c0.02-0.05,0.02-0.09,0.02-0.12
		c-0.01-0.04-0.04-0.07-0.09-0.08l-0.01-0.05l0.68-0.09l0.01,0.04c-0.05,0.02-0.08,0.05-0.07,0.09c0,0.03,0.02,0.06,0.04,0.09
		l0.93,1.39c0.04,0.06,0.07,0.1,0.1,0.12c0.03,0.02,0.06,0.03,0.1,0.03l0.01,0.05l-0.71,0.09l-0.01-0.05
		c0.06-0.02,0.09-0.05,0.08-0.1c0-0.02-0.02-0.05-0.04-0.08L23.03,54.11z M22.88,53.86l-0.4-0.65l-0.23,0.73L22.88,53.86z"/>
	<path class="st1" d="M25.69,53.65L26,54.03l-0.03,0.03c-0.03-0.02-0.05-0.03-0.07-0.03c-0.02,0-0.06,0.03-0.14,0.08
		c-0.15,0.11-0.28,0.19-0.39,0.23c-0.11,0.04-0.24,0.07-0.39,0.09c-0.31,0.03-0.56-0.02-0.77-0.14c-0.12-0.07-0.23-0.17-0.3-0.29
		c-0.09-0.13-0.15-0.29-0.16-0.46c-0.02-0.23,0.02-0.45,0.14-0.63c0.18-0.28,0.48-0.44,0.9-0.49c0.15-0.02,0.29-0.01,0.4,0.01
		c0.11,0.02,0.26,0.07,0.43,0.15c0.08,0.04,0.13,0.05,0.15,0.05c0.02,0,0.04-0.02,0.06-0.04l0.04,0.02l-0.23,0.43l-0.04-0.02
		c0-0.02,0-0.03,0-0.04c0-0.03-0.02-0.05-0.04-0.07c-0.03-0.02-0.07-0.05-0.14-0.07c-0.18-0.08-0.36-0.11-0.55-0.09
		c-0.22,0.02-0.39,0.1-0.51,0.22c-0.14,0.15-0.2,0.32-0.18,0.53c0.02,0.21,0.12,0.37,0.28,0.48c0.14,0.1,0.32,0.13,0.55,0.11
		c0.19-0.02,0.36-0.08,0.52-0.2c0.06-0.04,0.1-0.07,0.12-0.1c0.02-0.03,0.03-0.05,0.03-0.08c0-0.01,0-0.02-0.01-0.04L25.69,53.65z"
		/>
	<path class="st1" d="M26.39,54.11l-0.14-1.64c0-0.03-0.01-0.05-0.03-0.06c-0.01-0.01-0.04-0.02-0.07-0.03l0-0.05l0.61-0.05l0,0.04
		c-0.03,0.01-0.06,0.03-0.07,0.04c-0.01,0.02-0.02,0.04-0.01,0.07l0.14,1.64c0,0.03,0.01,0.05,0.03,0.07
		c0.02,0.01,0.04,0.02,0.07,0.03l0,0.05l-0.61,0.05l0-0.05c0.03-0.01,0.06-0.03,0.07-0.04C26.38,54.16,26.39,54.14,26.39,54.11"/>
	<path class="st1" d="M28.2,52.14c0.34-0.02,0.61,0.05,0.82,0.22c0.22,0.18,0.34,0.42,0.36,0.72c0.01,0.19-0.03,0.36-0.12,0.53
		c-0.18,0.33-0.49,0.51-0.94,0.53c-0.34,0.02-0.61-0.05-0.82-0.22c-0.11-0.09-0.2-0.2-0.26-0.34c-0.06-0.12-0.09-0.24-0.1-0.38
		c-0.01-0.19,0.03-0.38,0.12-0.54C27.44,52.35,27.75,52.18,28.2,52.14 M28.22,52.47c-0.19,0.01-0.34,0.08-0.45,0.19
		c-0.14,0.14-0.2,0.31-0.19,0.52c0.01,0.21,0.1,0.38,0.25,0.5c0.13,0.1,0.29,0.15,0.48,0.14c0.19-0.01,0.34-0.08,0.45-0.19
		c0.07-0.07,0.12-0.15,0.15-0.25c0.03-0.09,0.04-0.18,0.03-0.27c-0.01-0.22-0.1-0.39-0.25-0.5C28.57,52.51,28.41,52.46,28.22,52.47
		 M28.56,51.58l0,0.04c-0.04,0-0.06,0.02-0.08,0.05l-0.19,0.26c0,0.01-0.01,0.02-0.01,0.02c0,0.02,0.01,0.02,0.03,0.02
		c0,0,0,0,0.01,0l0,0.04l-0.31,0.02l0-0.04c0.02,0,0.04-0.01,0.05-0.01c0.01-0.01,0.02-0.02,0.02-0.04l0.08-0.24
		c0-0.01,0-0.02,0-0.02c0-0.02-0.01-0.02-0.04-0.02l0-0.04L28.56,51.58z"/>
	<path class="st1" d="M30.17,52.68l0.04,1.18c0,0.03,0.01,0.05,0.02,0.07c0.01,0.01,0.04,0.03,0.07,0.03l0,0.05l-0.57,0.02l0-0.05
		c0.03-0.01,0.06-0.02,0.07-0.04c0.01-0.02,0.02-0.04,0.02-0.07l-0.06-1.65c0-0.03-0.01-0.05-0.02-0.07
		c-0.01-0.01-0.04-0.03-0.07-0.03l0-0.05l0.66-0.02l0,0.05c-0.04,0.01-0.06,0.03-0.06,0.07c0,0.02,0.01,0.05,0.04,0.07l1.11,1.08
		l-0.04-1.15c0-0.03-0.01-0.05-0.02-0.07c-0.01-0.01-0.04-0.03-0.07-0.03l0-0.05l0.57-0.02l0,0.05c-0.03,0.01-0.06,0.02-0.07,0.04
		c-0.01,0.02-0.02,0.04-0.02,0.07l0.06,1.65c0,0.03,0.01,0.05,0.02,0.07c0.01,0.01,0.04,0.03,0.07,0.03l0,0.05l-0.61,0.02l0-0.05
		c0.04-0.01,0.06-0.03,0.06-0.06c0-0.02-0.02-0.05-0.07-0.1L30.17,52.68z"/>
	<path class="st1" d="M34.07,53.13l0,0.67c0,0.03,0.01,0.05,0.02,0.07c0.01,0.02,0.04,0.03,0.07,0.04l0,0.05l-0.61,0V53.9
		c0.03-0.01,0.06-0.02,0.07-0.04c0.01-0.01,0.02-0.04,0.02-0.07l0-0.67l-0.63-0.89c-0.05-0.08-0.1-0.13-0.13-0.15
		c-0.03-0.03-0.07-0.04-0.11-0.05V52l0.77,0v0.05c-0.06,0.01-0.1,0.04-0.1,0.09c0,0.02,0.02,0.05,0.06,0.11l0.35,0.52l0.36-0.52
		c0.04-0.06,0.06-0.09,0.06-0.11c0-0.02-0.01-0.04-0.03-0.06c-0.02-0.02-0.04-0.03-0.07-0.03V52l0.75,0l0,0.05
		c-0.04,0.01-0.08,0.02-0.11,0.05c-0.03,0.03-0.07,0.08-0.13,0.15L34.07,53.13z"/>
	<path class="st1" d="M36.32,53.67l1.2,0.04c0.03,0,0.05,0,0.07-0.02c0.02-0.01,0.03-0.04,0.04-0.07l0.04,0l-0.02,0.5l-0.05,0
		c-0.01-0.03-0.02-0.06-0.03-0.07c-0.01-0.01-0.04-0.02-0.07-0.02l-1.71-0.06l0-0.05c0.03-0.01,0.06-0.02,0.07-0.03
		c0.01-0.01,0.02-0.04,0.02-0.07l0.06-1.65c0-0.03,0-0.05-0.02-0.07c-0.01-0.02-0.04-0.03-0.07-0.04l0-0.05l0.61,0.02l0,0.05
		c-0.03,0.01-0.06,0.02-0.07,0.03c-0.01,0.02-0.02,0.04-0.02,0.07L36.32,53.67z"/>
	<path class="st1" d="M37.94,53.91l0.09-1.65c0-0.03,0-0.05-0.02-0.07c-0.01-0.02-0.04-0.03-0.07-0.04l0-0.05l0.61,0.03l0,0.05
		c-0.03,0.01-0.06,0.02-0.07,0.03c-0.01,0.01-0.02,0.04-0.02,0.07l-0.09,1.65c0,0.03,0,0.05,0.02,0.07
		c0.01,0.02,0.04,0.03,0.07,0.04l0,0.05l-0.61-0.03l0-0.05c0.03-0.01,0.06-0.02,0.07-0.03C37.93,53.96,37.94,53.94,37.94,53.91"/>
	<path class="st1" d="M40.6,53.22c0.21,0.1,0.31,0.26,0.29,0.48c-0.01,0.18-0.09,0.31-0.22,0.4c-0.07,0.04-0.15,0.08-0.23,0.09
		c-0.09,0.02-0.19,0.02-0.32,0.01l-1.33-0.1l0-0.05c0.03-0.01,0.06-0.02,0.07-0.03c0.01-0.01,0.02-0.04,0.03-0.07l0.13-1.64
		c0-0.03,0-0.05-0.01-0.07c-0.01-0.02-0.03-0.03-0.07-0.04l0-0.05l1.31,0.1c0.13,0.01,0.23,0.03,0.3,0.05
		c0.07,0.03,0.14,0.06,0.19,0.11c0.11,0.1,0.15,0.23,0.14,0.4C40.88,53.02,40.78,53.15,40.6,53.22 M39.33,53.82l0.72,0.06
		c0.13,0.01,0.23,0,0.29-0.03c0.07-0.04,0.11-0.1,0.12-0.2c0.01-0.1-0.02-0.17-0.08-0.22c-0.06-0.04-0.15-0.07-0.28-0.08l-0.72-0.06
		L39.33,53.82z M39.39,52.97l0.74,0.06c0.11,0.01,0.19,0,0.24-0.03c0.05-0.03,0.08-0.09,0.09-0.17c0.01-0.08-0.01-0.14-0.06-0.18
		c-0.04-0.04-0.12-0.06-0.24-0.07l-0.74-0.06L39.39,52.97z"/>
	<path class="st1" d="M41.73,53.5l-0.06,0.53l1.24,0.14c0.03,0,0.05,0,0.07-0.01c0.02-0.01,0.03-0.03,0.04-0.07l0.04,0.01l-0.06,0.5
		l-0.05-0.01c-0.01-0.03-0.02-0.06-0.03-0.08c-0.01-0.01-0.03-0.02-0.06-0.03l-1.76-0.19l0.01-0.05c0.03-0.01,0.06-0.02,0.07-0.03
		c0.02-0.01,0.02-0.03,0.03-0.06l0.18-1.64c0-0.03,0-0.05-0.01-0.07c-0.01-0.02-0.03-0.03-0.07-0.04l0.01-0.04l1.72,0.19
		c0.03,0,0.05,0,0.07-0.01c0.02-0.01,0.03-0.03,0.05-0.07l0.04,0.01l-0.06,0.5l-0.05-0.01c-0.01-0.03-0.02-0.06-0.03-0.07
		c-0.01-0.02-0.03-0.02-0.06-0.03l-1.21-0.13l-0.05,0.46l0.79,0.09c0.03,0,0.05,0,0.07-0.01c0.02-0.01,0.03-0.03,0.04-0.07l0.05,0
		l-0.05,0.49l-0.05-0.01c-0.01-0.03-0.02-0.06-0.03-0.07c-0.01-0.02-0.03-0.02-0.06-0.03L41.73,53.5z"/>
	<path class="st1" d="M43.93,53.82l-0.09,0.64c0,0.03,0,0.05,0.01,0.07c0.01,0.02,0.03,0.03,0.06,0.05l-0.01,0.04l-0.6-0.09
		l0.01-0.05c0.04,0,0.06-0.01,0.08-0.03c0.02-0.01,0.03-0.03,0.03-0.06l0.23-1.63c0-0.03,0-0.05-0.01-0.07
		c-0.01-0.02-0.03-0.03-0.07-0.05l0.01-0.04l1.21,0.17c0.15,0.02,0.26,0.05,0.35,0.08c0.08,0.03,0.15,0.07,0.21,0.12
		c0.07,0.06,0.11,0.13,0.14,0.22c0.02,0.09,0.03,0.18,0.02,0.27c-0.05,0.31-0.25,0.47-0.6,0.48l0.3,0.59
		c0.05,0.1,0.09,0.17,0.12,0.2c0.03,0.03,0.06,0.05,0.11,0.06l-0.01,0.05l-0.7-0.1l0.01-0.05c0.05,0,0.08-0.01,0.08-0.04
		c0-0.02-0.01-0.06-0.05-0.13l-0.31-0.62L43.93,53.82z M43.98,53.51l0.65,0.09c0.1,0.01,0.16,0.02,0.2,0.02
		c0.04,0,0.08-0.01,0.11-0.02c0.08-0.03,0.12-0.09,0.14-0.19c0.01-0.1-0.01-0.18-0.08-0.22c-0.03-0.02-0.07-0.04-0.1-0.05
		c-0.04-0.01-0.1-0.02-0.2-0.04L44.05,53L43.98,53.51z"/>
	<path class="st1" d="M46.95,53.46l-0.26,1.45c-0.01,0.03,0,0.05,0.01,0.07c0.01,0.02,0.03,0.03,0.06,0.05l-0.01,0.04l-0.6-0.11
		l0.01-0.05c0.04,0,0.06-0.01,0.08-0.02c0.02-0.01,0.03-0.03,0.03-0.06l0.26-1.45l-0.59-0.11c-0.03-0.01-0.05,0-0.07,0.01
		c-0.02,0.01-0.03,0.03-0.05,0.06l-0.05-0.01l0.09-0.5l0.04,0.01c0,0.04,0.01,0.06,0.03,0.08c0.01,0.02,0.03,0.03,0.06,0.03
		l1.61,0.29c0.03,0.01,0.05,0,0.07-0.01c0.02-0.01,0.03-0.03,0.05-0.06l0.05,0.01l-0.09,0.5l-0.04-0.01c0-0.04-0.01-0.06-0.02-0.08
		c-0.01-0.02-0.03-0.03-0.06-0.03L46.95,53.46z"/>
	<path class="st1" d="M48.86,54.99l-0.87-0.18l-0.18,0.24c-0.03,0.03-0.04,0.06-0.04,0.08c-0.01,0.04,0.02,0.08,0.08,0.1l-0.01,0.04
		l-0.63-0.13l0.01-0.04c0.04,0,0.07-0.01,0.09-0.02c0.02-0.02,0.05-0.05,0.09-0.1l1.01-1.32c0.03-0.04,0.05-0.08,0.06-0.1
		c0.01-0.04-0.01-0.08-0.06-0.11l0.01-0.04l0.68,0.14l-0.01,0.04c-0.06,0-0.09,0.03-0.1,0.07c-0.01,0.03,0,0.06,0.01,0.1l0.42,1.62
		c0.02,0.07,0.04,0.12,0.05,0.14c0.02,0.03,0.05,0.05,0.08,0.07l-0.01,0.04l-0.7-0.15l0.01-0.05c0.06,0,0.1-0.02,0.11-0.07
		c0-0.02,0-0.05-0.01-0.09L48.86,54.99z M48.8,54.7l-0.17-0.74l-0.46,0.61L48.8,54.7z"/>
	<path class="st1" d="M49.8,55.55l0.4-1.6c0.01-0.03,0.01-0.05,0-0.07c-0.01-0.02-0.03-0.04-0.06-0.05l0.01-0.04l1.05,0.26
		c0.23,0.06,0.4,0.13,0.51,0.21c0.16,0.12,0.26,0.28,0.3,0.48c0.03,0.16,0.03,0.33-0.02,0.51c-0.08,0.33-0.24,0.55-0.49,0.67
		C51.4,55.97,51.29,56,51.17,56c-0.12,0-0.27-0.02-0.44-0.06l-1.05-0.26l0.01-0.04c0.04,0,0.06-0.01,0.08-0.02
		C49.78,55.6,49.79,55.58,49.8,55.55 M50.25,55.49l0.52,0.13c0.17,0.04,0.3,0.05,0.39,0.03c0.2-0.05,0.34-0.22,0.41-0.5
		c0.05-0.2,0.04-0.37-0.03-0.5c-0.04-0.07-0.09-0.13-0.16-0.18c-0.07-0.04-0.17-0.08-0.29-0.11l-0.52-0.13L50.25,55.49z"/>
</g>
</svg>
